<svg width="28" height="28" viewBox="0 0 28 28" fill="none" xmlns="http://www.w3.org/2000/svg" class="flex-shrink-0 w-5 h-5 text-white" data-v-b9217dac=""><path d="M10.8383 21.7443C10.8383 21.7443 9.95673 21.4137 10.0017 19.8272C10.3429 16.575 12.4545 13.123 15.3663 11.8697C14.6057 11.2044 14.061 10.3132 13.8059 9.31681C13.5507 8.32038 13.5976 7.26685 13.9401 6.2989C14.2826 5.33096 14.9041 4.49537 15.7206 3.9053C16.537 3.31524 17.5089 2.9992 18.5046 3C19.5003 3.0008 20.4717 3.3184 21.2873 3.90977C22.1029 4.50115 22.7232 5.33774 23.0642 6.30623C23.4052 7.27472 23.4505 8.32832 23.1939 9.32434C22.9373 10.3204 22.3912 11.2107 21.6296 11.8747C23.9003 12.7534 25.7521 15.2136 26.5838 17.5669C27.1764 19.4186 27.3998 21.831 25.4145 22.2308C24.2949 25.8174 12.9524 26.0273 11.7721 22.2308C11.4278 22.1488 11.1075 21.9824 10.8383 21.7456V21.7443Z" stroke="white" stroke-width="1.5" stroke-linejoin="round"/><path d="M12 13.9752C11.3301 12.7024 10.262 11.5302 9.00836 11.0507C9.53273 10.598 9.9087 9.99095 10.0854 9.31188C10.262 8.63281 10.2308 7.9145 9.996 7.2542C9.76119 6.59391 9.33409 6.02354 8.77255 5.62034C8.21101 5.21714 7.54215 5.00059 6.85656 5C6.17097 4.99942 5.50177 5.21483 4.93958 5.61707C4.37738 6.01932 3.94936 6.58895 3.71347 7.24884C3.47758 7.90874 3.44522 8.627 3.62078 9.30637C3.79633 9.98574 4.17131 10.5934 4.69495 11.047C2.69016 11.9017 1.23561 14.2548 1.00115 16.473C0.970054 17.5545 1.57771 17.7801 1.57771 17.7801C1.76192 17.942 1.98202 18.0548 2.22006 18.1112C2.78824 19.9211 6.7751 20.3956 9.38635 19.6832" stroke="white" stroke-width="1.5" stroke-linejoin="round"/></svg>