<svg xmlns="http://www.w3.org/2000/svg" width="17" height="20" viewBox="0 0 17 20" fill="none" class="flex-shrink-0 w-5 h-5 text-white" data-v-b9217dac=""><path d="M13.5761 19.5447C12.7687 18.3593 12.2958 16.6503 11.6807 15.3153C10.8466 14.9184 10.073 14.4747 9.27118 14.0748C8.64421 14.9919 7.57059 16.5618 7.18159 17.1188C7.04695 17.3955 6.59684 17.7204 6.28435 17.7448C5.37568 17.9509 2.59453 18.5913 1.71865 18.7682C-0.103159 19.0081 -0.62183 16.3174 1.17265 15.8688C2.23235 15.6219 3.94337 15.2433 5.08703 14.986L6.67931 12.7672C6.25057 11.9966 6.42197 11.2708 6.40706 10.6384C5.64247 10.0154 4.9201 9.35509 4.22059 8.66303C3.54493 8.15132 3.63137 6.97983 4.33039 6.52078C5.37518 5.786 6.44383 5.085 7.57507 4.48137C5.33892 3.44452 6.338 -0.0719104 8.73363 0.0011209C11.175 -0.0416049 12.0533 3.59406 9.72825 4.52111C10.5137 4.86789 11.0388 5.79891 11.7225 6.64101C12.0384 6.32653 12.4324 5.93256 12.6192 5.7537C13.8369 4.4913 15.8062 6.13029 14.9274 7.60383C14.5339 8.11803 13.8091 8.71023 13.35 9.18618L12.578 9.92245C12.1239 10.2836 11.4656 10.3577 10.9365 10.151C10.9365 10.9712 11.0786 11.4228 10.8858 12.1462C11.789 12.4845 12.8313 12.64 13.6605 13.1651C14.0614 13.5313 14.3019 14.363 14.5453 14.8116C15.0064 15.7809 15.5131 16.8043 15.9299 17.8133C16.624 19.2958 14.761 20.7693 13.5761 19.5447ZM6.6033 5.99217C6.19492 6.33845 5.77164 6.66684 5.34488 6.98977C5.10045 7.18402 4.5629 7.46323 4.78249 7.84627C5.34339 8.46083 5.90677 9.09427 6.43439 9.75155C6.50245 8.40469 6.47363 7.05634 6.6033 5.99217ZM11.9574 9.29249C11.9589 9.29398 11.9584 9.29349 11.9599 9.29498C11.9743 9.30939 11.9679 9.30293 11.9574 9.29249ZM8.44598 4.20067C8.55229 4.23098 8.63924 4.29308 8.68445 4.36959C8.73313 4.29506 8.82256 4.24389 8.92143 4.21259C10.778 3.73864 10.5763 1.0633 8.72767 0.994744C6.884 1.02952 6.59088 3.71181 8.44598 4.20067ZM10.2961 11.9867C10.4859 11.4174 10.3751 10.467 10.4605 9.8524C9.73272 8.85629 9.1132 7.67388 8.47827 6.61716C8.17323 6.07415 8.55627 5.89132 8.88913 6.33746C9.60007 7.25408 10.3428 8.26906 11.0219 9.214C11.2182 9.41272 11.6877 9.3849 11.9266 9.2602C11.9256 9.25921 11.9237 9.25672 11.9237 9.25672C12.5924 8.56168 13.4245 7.77275 14.0858 7.07522C14.3645 6.62511 13.7052 5.96882 13.2839 6.42241C13.0161 6.67082 12.2754 7.33456 11.9947 7.58793C11.8069 7.78219 11.4775 7.75486 11.3285 7.52832C10.9638 7.03548 10.1471 5.65782 9.74067 5.23205C9.4863 4.91807 8.90255 4.86839 8.65464 4.60309C8.59154 4.6632 8.47579 4.70891 8.35705 4.68953C7.63617 4.95185 7.1652 5.6608 7.18954 6.43284L7.21985 8.57361C7.23624 9.28454 7.21687 11.087 7.26555 11.7457C7.30083 12.0404 7.41559 12.3454 7.54079 12.4592C7.70076 12.6047 7.72461 12.8442 7.60488 13.0171C7.60388 13.024 5.77412 15.6691 5.77015 15.679C5.69712 15.7848 5.5908 15.8534 5.47504 15.8807C4.35225 16.1415 2.50709 16.5797 1.3987 16.8346C0.827369 16.9648 0.985355 17.8893 1.59544 17.7964C2.60546 17.5967 5.12578 17.0487 6.10848 16.855C6.38818 16.8326 6.48307 16.5405 6.67186 16.3174L7.13241 15.6919C7.14483 15.6661 8.98949 13.2014 9.00141 13.1791C9.04911 13.115 9.11618 13.0737 9.18821 13.0568C9.69397 12.9391 10.1227 12.5158 10.2961 11.9867ZM15.062 18.2927C14.5135 16.9027 13.8324 15.5031 13.3098 14.0932C13.2139 13.8488 13.1871 13.7529 13.0067 13.6495C12.2501 13.2923 11.4785 12.9808 10.7075 12.6147C10.4804 13.0712 10.1177 13.4508 9.63336 13.66C10.4904 13.9715 11.3245 14.3495 12.1442 14.6596C12.2337 14.6933 12.3017 14.7589 12.3405 14.8384C12.9709 16.0427 13.665 17.8088 14.2691 18.8546C14.6825 19.2844 15.214 18.7314 15.062 18.2927Z" fill="currentColor"/></svg>