<svg xmlns="http://www.w3.org/2000/svg" width="21" height="20" viewBox="0 0 21 20" fill="none" class="flex-shrink-0 w-5 h-5 text-white" data-v-b9217dac=""><g clip-path="url(#clip0_993_3205)"><path d="M10.786 13.3584C10.4464 14.9056 8.37095 14.7169 8.37095 13.3584C8.37095 11.9999 10.4842 11.7735 10.786 13.3584C11.0879 12.1132 9.35208 11.0188 8.18227 12.1132C7.46529 12.7547 7.46529 13.9245 8.18227 14.566C8.93698 15.2452 9.99359 15.132 10.5219 14.4528C10.786 14.1132 10.8992 13.6981 10.786 13.3584Z" fill="currentColor"/><path d="M10.786 13.3584C10.4464 14.9056 8.37095 14.7169 8.37095 13.3584C8.37095 11.9999 10.4842 11.7735 10.786 13.3584ZM10.786 13.3584C11.0879 12.1132 9.35208 11.0188 8.18227 12.1132C7.46529 12.7547 7.46529 13.9245 8.18227 14.566C8.93698 15.2452 9.99359 15.132 10.5219 14.4528C10.786 14.1132 10.8992 13.6981 10.786 13.3584Z" stroke="currentColor" stroke-width="0.25"/><path d="M1.05105 18.7547C1.05105 18.8679 1.16425 18.9811 1.27746 18.9811C4.25859 18.9056 7.91897 18.7924 9.16425 18.7547C8.56048 18.7169 7.91897 18.7169 7.3152 18.6792C8.48501 17.5849 7.57935 15.4717 5.80576 15.4717C4.10765 15.4339 3.20199 17.4339 4.22086 18.566C3.3152 18.5283 2.44727 18.5283 1.54161 18.4905C1.88123 13.7735 5.80576 10.4528 10.0699 10.4905C14.7492 10.5283 18.2586 14.1509 18.5605 18.4528C17.9944 18.4528 17.4284 18.4905 16.8624 18.4905C16.9756 16.8679 15.6548 15.283 13.6548 15.2452C11.5793 15.283 10.2209 17.0188 10.485 18.6792C10.0322 18.6792 9.61708 18.7169 9.16425 18.7169C10.4473 18.7924 13.9944 18.9056 18.8246 18.9811C18.9756 18.9811 19.0888 18.8679 19.0888 18.7169C19.051 13.6981 14.9756 9.77355 10.1076 9.73581C10.2586 8.75468 10.3341 7.84902 10.3718 6.94336C11.7303 8.07544 13.2775 6.11317 14.4473 5.99996C15.202 5.88676 15.3907 6.71694 15.8058 6.71694C15.9944 6.71694 16.1831 6.566 16.1831 6.33959C16.1831 6.30185 16.1831 2.64147 16.1831 2.86789C16.1831 2.79242 16.1831 2.71694 16.1077 2.64147C15.0133 1.32072 14.0699 1.73581 12.7869 2.60374C11.8435 3.24525 11.1643 3.73581 10.3341 2.94336C10.2963 2.26411 10.1831 1.6226 10.0699 0.943359C9.61708 3.20751 9.57935 7.20751 9.99444 9.69808C5.01331 9.81129 1.01331 13.849 1.05105 18.7547ZM10.485 18.6792C11.2775 15.2075 15.8058 15.0943 16.7492 18.4905C15.6171 18.5283 13.8058 18.566 10.485 18.6792ZM15.4661 3.05657C15.4661 3.0943 15.4661 5.73581 15.4661 5.54713C15.4284 5.54713 15.4284 5.5094 15.3907 5.5094C13.5039 4.45279 12.0322 7.88676 10.4095 6.52827C10.4473 5.54713 10.4473 4.67921 10.3718 3.47166C12.1454 5.01883 13.9944 1.32072 15.4661 3.05657ZM5.80576 16.2264C6.93784 16.2264 7.76803 17.4339 7.23973 18.6792C4.52274 18.6037 4.97557 18.6037 4.29633 18.6037C3.88123 17.3585 4.67369 16.2264 5.80576 16.2264Z" fill="currentColor"/><path d="M10.485 18.6792C10.2209 17.0188 11.5793 15.283 13.6548 15.2452C15.6548 15.283 16.9756 16.8679 16.8624 18.4905C17.4284 18.4905 17.9944 18.4528 18.5605 18.4528C18.2586 14.1509 14.7492 10.5283 10.0699 10.4905C5.80576 10.4528 1.88123 13.7735 1.54161 18.4905C2.44727 18.5283 3.3152 18.5283 4.22086 18.566C3.20199 17.4339 4.10765 15.4339 5.80576 15.4717C7.57935 15.4717 8.48501 17.5849 7.3152 18.6792C7.91897 18.7169 8.56048 18.7169 9.16425 18.7547C7.91897 18.7924 4.25859 18.9056 1.27746 18.9811C1.16425 18.9811 1.05105 18.8679 1.05105 18.7547C1.01331 13.849 5.01331 9.81129 9.99444 9.69808C9.57935 7.20751 9.61708 3.20751 10.0699 0.943359C10.1831 1.6226 10.2963 2.26411 10.3341 2.94336C11.1643 3.73581 11.8435 3.24525 12.7869 2.60374C14.0699 1.73581 15.0133 1.32072 16.1077 2.64147C16.1831 2.71694 16.1831 2.79242 16.1831 2.86789C16.1831 2.64147 16.1831 6.30185 16.1831 6.33959C16.1831 6.566 15.9944 6.71694 15.8058 6.71694C15.3907 6.71694 15.202 5.88676 14.4473 5.99996C13.2775 6.11317 11.7303 8.07544 10.3718 6.94336C10.3341 7.84902 10.2586 8.75468 10.1077 9.73581C14.9756 9.77355 19.051 13.6981 19.0888 18.7169C19.0888 18.8679 18.9756 18.9811 18.8246 18.9811C13.9944 18.9056 10.4473 18.7924 9.16425 18.7169C9.61708 18.7169 10.0322 18.6792 10.485 18.6792ZM10.485 18.6792C11.2775 15.2075 15.8058 15.0943 16.7492 18.4905C15.6171 18.5283 13.8058 18.566 10.485 18.6792ZM15.4661 3.05657C15.4661 3.0943 15.4661 5.73581 15.4661 5.54713C15.4284 5.54713 15.4284 5.5094 15.3907 5.5094C13.5039 4.45279 12.0322 7.88676 10.4095 6.52827C10.4473 5.54713 10.4473 4.67921 10.3718 3.47166C12.1454 5.01883 13.9944 1.32072 15.4661 3.05657ZM5.80576 16.2264C6.93784 16.2264 7.76803 17.4339 7.23973 18.6792C4.52274 18.6037 4.97557 18.6037 4.29633 18.6037C3.88123 17.3585 4.67369 16.2264 5.80576 16.2264Z" stroke="currentColor" stroke-width="0.25"/><path d="M15.3145 9.16986C15.5031 9.47175 15.7673 9.69816 16.0692 9.84911C15.9937 10.1887 15.956 10.5284 16.0314 10.868C16.3333 10.6793 16.5597 10.4151 16.7107 10.1133C17.1258 10.2265 17.4654 10.2265 17.7295 10.151C17.5786 9.92458 17.3522 9.66043 16.9748 9.47175C17.088 9.05665 17.088 8.71703 17.0126 8.45288C16.7862 8.60382 16.522 8.83024 16.3333 9.2076C15.9937 9.09439 15.6541 9.05665 15.3145 9.16986Z" fill="currentColor" stroke="currentColor" stroke-width="0.25"/><path d="M1.84323 2.94338C1.73003 3.35847 1.73003 3.73583 1.8055 3.99998C2.03191 3.84904 2.29606 3.58489 2.52248 3.20753C2.93757 3.32074 3.31493 3.32074 3.57908 3.24526C3.3904 3.01885 3.12625 2.7547 2.74889 2.52828C2.8621 2.11319 2.8621 1.73583 2.78663 1.47168C2.56022 1.66036 2.29606 1.88677 2.10739 2.26413C1.76776 2.18866 1.3904 2.15093 1.05078 2.2264C1.23946 2.52828 1.50361 2.7547 1.84323 2.94338Z" fill="currentColor" stroke="currentColor" stroke-width="0.25"/><path d="M6.18245 5.88671C6.10698 6.22633 6.06924 6.56595 6.14472 6.90557C6.4466 6.71689 6.67302 6.45274 6.82396 6.15086C7.16358 6.22633 7.50321 6.26406 7.84283 6.18859C7.69189 5.96218 7.46547 5.69803 7.08811 5.50935C7.20132 5.09425 7.16358 4.79237 7.12585 4.49048C6.82396 4.67916 6.63528 4.94331 6.4466 5.2452C6.10698 5.16972 5.76736 5.13199 5.42773 5.20746C5.61641 5.50935 5.88056 5.73576 6.18245 5.88671Z" fill="currentColor" stroke="currentColor" stroke-width="0.25"/></g><defs><clipPath id="clip0_993_3205"><rect width="20" height="20" fill="white" transform="translate(0.0703125)"/></clipPath></defs></svg>