<svg viewBox="0 0 180 40" fill="none" xmlns="http://www.w3.org/2000/svg" data-v-4128d41b=""><path d="M0.81716 1.875C0.81716 1.375 2.99625 0.416667 4.0858 0H175.689L178.958 1.25V3.125L172.421 4.375L178.958 5C179.503 8.54167 180.429 15.5 179.775 15C179.121 14.5 174.6 16.0417 172.421 16.875H178.958C178.686 21.6667 177.977 31.75 177.324 33.75C176.67 35.75 176.507 37.5 176.507 38.125L173.238 40H5.72012L3.26864 38.75C2.17909 34.5833 0 26.125 0 25.625C0 25.125 4.35819 24.1667 6.53728 23.75L0.81716 23.125L0 16.25H4.0858L0.81716 15V1.875Z" fill="#6C8A1F" class="background"></path><mask id="mask0_1605_24551" style="mask-type:alpha;" maskUnits="userSpaceOnUse" x="0" y="0" width="180" height="40" class="background"><path d="M0.81716 1.875C0.81716 1.375 2.99625 0.416667 4.0858 0H175.689L178.958 1.25V3.125L172.421 4.375L178.958 5C179.503 8.54167 180.429 15.5 179.775 15C179.121 14.5 174.6 16.0417 172.421 16.875H178.958C178.686 21.6667 177.977 31.75 177.324 33.75C176.67 35.75 176.507 37.5 176.507 38.125L173.238 40H5.72012L3.26864 38.75C2.17909 34.5833 0 26.125 0 25.625C0 25.125 4.35819 24.1667 6.53728 23.75L0.81716 23.125L0 16.25H4.0858L0.81716 15V1.875Z" fill="#6C8A1F"></path></mask><g mask="url(#mask0_1605_24551)" class="background"><path d="M180.806 12.1783C180.788 13.0856 180.752 13.9999 180.707 14.921C178.332 15.0873 176.001 15.2327 173.725 15.4267C173.194 15.4751 172.663 15.5167 172.132 15.5583C170.171 15.7176 168.209 15.863 166.239 15.9946C165.258 16.0569 164.268 16.1193 163.287 16.1816C162.657 16.2232 162.1 16.4102 161.479 16.4656C160.624 16.5418 159.688 16.3686 158.824 16.3271C157.862 16.2855 156.899 16.2717 155.945 16.2786C154.01 16.2994 152.085 16.4102 150.168 16.5764C146.326 16.9158 142.52 17.4768 138.705 17.9686C132.587 18.7582 126.432 19.3469 120.259 19.7486C123.625 20.0049 126.972 20.4274 130.265 21.0161C129.032 21.0923 127.791 21.1616 126.558 21.2239C122.635 21.4109 118.694 21.5079 114.762 21.5563C110.821 21.6048 106.889 21.6048 102.948 21.6048C99.0065 21.6048 95.0744 21.591 91.1333 21.6187C87.2013 21.6464 83.2602 21.7087 79.3371 21.8542C77.3756 21.9234 75.405 22.0204 73.4525 22.1312C72.9576 22.1589 72.4717 22.1936 71.9858 22.2213C71.392 22.2628 70.8251 22.3944 70.2133 22.4429C65.5164 22.8654 60.8375 23.3918 56.2036 24.0983C48.9963 25.1926 41.753 26.2523 34.4287 26.6402C33.106 26.7025 31.7743 26.7718 30.4517 26.8341C24.1351 27.8107 17.3238 28.0116 11.1242 28.5934C9.01872 28.7942 6.87722 28.905 4.72673 28.9674C3.43104 28.8012 2.13534 28.5864 0.866644 28.3371C0.560716 28.2817 0.227794 28.1986 -0.0601375 28.0947C-0.465042 27.9562 -0.806961 27.7553 -0.986919 27.4575C-1.13988 27.2012 -1.13088 26.9103 -1.12189 26.6402C-1.11289 26.377 -1.15788 26.0999 -1.13988 25.8367C-1.11289 25.2688 -1.01391 24.7147 -0.941929 24.1537C4.72673 23.7935 10.5394 22.526 15.9921 21.9234C22.9924 21.1546 30.1187 20.6975 37.1821 20.3927C45.1722 20.0534 53.1443 20.7806 61.1074 20.7806C68.4857 20.7806 75.8549 20.2819 83.1972 19.8317C97.5038 18.9382 111.792 18.0171 126.09 17.0612C122.977 17.0197 119.873 16.9573 116.759 16.8742C112.8 16.7703 108.832 16.6318 104.873 16.4725C103.946 16.4379 103.002 16.3409 102.093 16.424C101.148 16.5071 100.185 16.5279 99.2404 16.521C97.3509 16.5002 95.4703 16.3132 93.6347 15.9669C92.555 15.766 91.4932 15.5028 90.4045 15.3574C88.5599 15.1081 86.6704 15.1842 84.7988 15.1704C77.7985 15.1011 70.9061 13.6743 63.9058 13.7297C62.0702 13.7436 60.2346 13.8613 58.408 13.986C56.4645 14.1176 54.521 14.2631 52.5684 14.2977C51.7046 14.3115 50.8049 14.3669 49.968 14.2146C49.3202 14.0968 48.5824 14.1592 47.9165 14.1453C46.7288 14.1176 45.5501 14.0968 44.3624 14.083C41.9959 14.0483 39.6295 14.0206 37.2541 14.0137C28.2832 13.9791 19.3213 14.3669 10.3504 14.3115C6.51731 14.2908 2.63023 14.2284 -1.16688 13.799C-1.18487 13.7921 -1.19387 13.7782 -1.20287 13.7713C-1.31984 13.6466 -1.34683 13.4942 -1.36483 13.3349C-1.64376 10.7653 -1.32884 8.11951 -1.51779 5.53604C-1.53579 5.39059 -1.58078 4.66334 -1.63477 3.84605C2.94515 3.54129 7.55206 3.46511 12.132 3.20884C21.0849 2.68937 30.0558 2.47466 39.0536 2.50236C56.8874 2.5647 74.6852 3.44433 92.465 4.48326C110.254 5.52911 128.007 6.80354 145.804 7.7732C154.802 8.26496 163.8 8.56279 172.816 8.56279C175.461 8.56279 178.125 8.43812 180.788 8.28574C180.779 8.97144 180.617 9.62943 180.617 10.329C180.617 10.9454 180.815 11.548 180.806 12.1783ZM181.085 30.1656C181.022 29.1059 181.022 28.0462 181.022 26.9865C175.344 26.5155 169.658 26.0237 163.944 25.719C154.145 25.2065 144.311 25.2826 134.512 25.5943C132.47 25.6567 130.463 25.6982 128.439 25.8922C127.458 25.9891 126.486 26.0792 125.505 26.1692C121.591 26.5224 117.668 26.8203 113.736 27.0488C112.206 27.1389 110.668 27.222 109.138 27.2912C113.115 27.2705 117.083 27.2497 121.06 27.222C125.037 27.2012 129.005 27.1804 132.982 27.1527C134.971 27.1389 136.96 27.1319 138.939 27.1181C139.929 27.1181 140.928 27.1042 141.917 27.1042C142.34 27.1042 142.763 27.125 143.177 27.0558C143.429 27.0142 143.663 26.9311 143.924 26.9034C144.815 26.7995 145.813 26.938 146.704 26.9726C147.685 27.0142 148.675 27.0558 149.656 27.1042C151.626 27.1943 153.597 27.3051 155.567 27.4159C158.671 27.596 161.767 27.7969 164.871 28.0116C168.254 28.2471 171.61 28.5518 174.976 28.8704C167.336 29.4314 159.697 30.0132 152.04 30.3388C134.413 31.0868 116.786 32.0288 99.1324 31.7656C81.7215 31.5024 64.3557 30.7336 46.9358 30.7821C37.7579 30.8028 28.5801 30.9206 19.4203 31.1284C12.6629 31.2807 5.80648 31.253 -0.950927 31.7863C-1.0859 32.1396 -1.13988 32.5275 -1.18487 32.8945C-1.25685 33.5456 -1.28385 34.2174 -1.38283 34.8685C6.1394 35.104 13.7426 34.7092 21.2468 34.6954C30.4157 34.6815 39.5935 34.7508 48.7623 34.917C66.1462 35.2356 83.5031 35.9767 100.887 36.2122C118.568 36.4546 136.222 35.478 153.858 34.7992C162.954 34.446 172.114 34.4391 181.22 34.3698H181.409C181.292 32.9707 181.175 31.5716 181.094 30.1725L181.085 30.1656Z" fill="#648219" class=""></path></g><path d="M119.806 10.6985C117.328 10.6279 114.85 10.3897 112.383 10.1427C101.233 9.04897 90.0833 7.95519 78.9336 6.86141C66.8499 5.6706 54.6777 4.4798 42.5449 5.23838C40.9324 5.22074 39.2118 5.39716 37.5895 5.37952C45.0226 6.12046 52.5245 6.34981 59.9969 6.06754C62.9367 5.95287 65.8962 5.76763 68.8262 6.03226C71.1761 6.24396 73.4768 6.75556 75.7775 7.20542C80.1036 8.05222 84.4691 8.71378 88.8641 9.25185C101.105 10.7602 113.484 11.3071 125.843 11.2453C123.572 10.9984 122.087 10.769 119.806 10.6985Z" fill="#4E6417" class="background"></path><g clip-path="url(#clip0_1605_24551)" class="background"><path d="M49.0314 26.25C44.6794 27.0466 40.3349 27.8431 35.9829 28.6345C33.9066 29.0121 31.8304 29.3949 29.7172 29.6225C27.0942 29.9069 24.4269 29.9535 21.7743 29.9794C19.4173 30 17.0677 30.0052 14.7107 29.9845C15.6195 29.8863 16.5357 29.8035 17.4445 29.7363C17.814 29.7104 18.2203 29.7207 18.5824 29.6794C20.5035 29.4725 22.3211 29.5604 24.2791 29.5087C26.3184 29.4569 28.3355 29.0742 30.3379 28.8414C33.5224 28.4742 36.6848 28.0552 39.8472 27.6052C42.9135 27.1707 45.9725 26.7052 49.0314 26.2449V26.25Z" fill="#4E6417"></path></g><g clip-path="url(#clip1_1605_24551)" class="background"><path d="M124.207 31.7332C128.363 32.2163 132.555 32.6994 136.729 32.4234C139.422 32.247 142.079 31.7562 144.772 31.5108C147.965 31.2194 151.186 31.2807 154.388 31.2424C160.145 31.1657 165.901 30.7592 171.593 30.023C170.001 29.9924 168.4 30 166.808 30.046C165.401 30.0921 164.013 30.023 162.606 30.046C159.478 30.0997 156.359 30.2684 153.249 30.4755C150.14 30.6902 147.039 30.951 143.93 31.1887C140.829 31.4264 137.729 31.6411 134.619 31.7638C131.509 31.8865 128.39 31.9172 125.271 31.7868C124.92 31.7715 124.549 31.7792 124.207 31.7332Z" fill="#4E6417" class=""></path></g><path d="M172.373 4.87273L178.522 5.46064C178.786 7.208 179.117 9.60683 179.319 11.5668C179.427 12.6244 179.497 13.5376 179.5 14.1492C179.5 14.2478 179.499 14.3342 179.497 14.4089C179.453 14.4055 179.411 14.4038 179.372 14.4029C179.139 14.398 178.867 14.4252 178.578 14.471C177.998 14.563 177.281 14.7414 176.532 14.957C175.029 15.3893 173.34 15.9882 172.242 16.408L172.421 17.375H178.428C178.288 19.7641 178.057 23.1912 177.786 26.3161C177.64 27.9982 177.482 29.5888 177.32 30.8814C177.157 32.1917 176.994 33.1482 176.848 33.5947C176.26 35.3961 176.055 37.0066 176.015 37.8307L173.105 39.5H5.84023L3.69565 38.4065C3.15219 36.3261 2.3678 33.2941 1.71054 30.6901C1.37022 29.3418 1.06442 28.11 0.843879 27.1848C0.733518 26.7219 0.64515 26.3384 0.584608 26.0566C0.563165 25.9568 0.545589 25.8715 0.531906 25.8009C0.617445 25.7575 0.73641 25.7059 0.891208 25.6476C1.30866 25.4904 1.90111 25.316 2.57732 25.1402C3.92489 24.7897 5.54765 24.4483 6.63118 24.2411L6.59159 23.253L1.26673 22.6711L0.562949 16.75H4.0858L4.2644 15.783L1.31716 14.6559V1.96527C1.34773 1.9329 1.3984 1.88713 1.47545 1.8291C1.66402 1.68709 1.94201 1.52231 2.27361 1.34984C2.89775 1.02523 3.64754 0.706294 4.17881 0.5H175.597L178.458 1.59411V2.71155L172.327 3.8839L172.373 4.87273ZM179.457 14.7635C179.457 14.7628 179.459 14.7582 179.462 14.7508C179.459 14.7605 179.457 14.7643 179.457 14.7635ZM1.28657 2.0026C1.2864 2.00262 1.28747 2.0007 1.29032 1.99678C1.28817 2.00062 1.28675 2.00258 1.28657 2.0026Z" stroke="currentColor" class=""></path></svg>