<svg xmlns="http://www.w3.org/2000/svg" width="16" height="18" viewBox="0 0 16 18" fill="none" class="absolute h-5 w-5 right-4 top-4 !mt-0 cursor-pointer"><path d="M3.5756 17.3878C3.34963 17.6761 3.0282 17.8742 2.66915 17.9466C2.31011 18.019 1.93702 17.9608 1.61705 17.7825C1.35573 17.6475 1.15489 17.419 1.05454 17.1425C0.954195 16.866 0.961712 16.5618 1.0756 16.2906C2.2414 13.9803 3.86255 11.2784 5.0056 9.44939C5.58315 8.52534 5.78725 8.35789 5.145 7.51284C4.61075 6.80984 3.9017 5.94719 3.44685 5.39654C2.65685 4.44049 1.5162 3.12259 1.21445 2.41564C1.08905 2.06418 1.07938 1.68183 1.18684 1.32449C1.2943 0.967139 1.51325 0.65354 1.8117 0.429539C2.4267 -0.0221607 2.9967 0.130389 3.69625 0.824089C4.15005 1.27409 6.8019 4.64764 7.16715 5.12634C7.6081 5.70434 7.71895 5.68929 8.18555 5.04324C8.65945 4.38699 10.5472 1.97049 11.0329 1.32294C11.9058 0.159039 12.9012 -0.317061 13.527 0.283739C13.6754 0.399258 13.7995 0.542949 13.8921 0.706561C13.9848 0.870173 14.0443 1.05048 14.0671 1.23713C14.0899 1.42379 14.0756 1.6131 14.025 1.79421C13.9744 1.97532 13.8886 2.14465 13.7723 2.29249C12.9067 3.65249 11.8436 4.88489 10.8828 6.17684C10.6141 6.49856 10.3676 6.8382 10.145 7.19339C9.6684 8.04564 9.6172 8.08229 10.1147 8.93634C10.4605 9.53004 11.0894 10.3463 11.4505 10.86C12.4467 12.2777 13.5269 13.8341 14.6311 15.1656C15.5755 16.3045 14.6253 17.24 14.0911 17.5159C13.7708 17.7032 13.3899 17.7576 13.0299 17.6677C12.67 17.5777 12.3595 17.3505 12.1649 17.0345C11.5187 16.1771 10.9888 15.223 10.3873 14.3332C9.89615 13.6064 9.29414 12.5132 8.77004 11.8045C7.97289 10.7266 7.82145 10.3311 7.4796 10.9385C6.29425 13.045 4.2235 16.5121 3.5756 17.3878Z" fill="currentColor"/></svg>