<svg data-v-634db118="" width="24" height="24" viewBox="0 0 24 24" fill="none" xmlns="http://www.w3.org/2000/svg"><path fill-rule="evenodd" clip-rule="evenodd" d="M18.8004 4.87874C17.2715 6.13783 15.5727 7.62675 13.9139 9.17562C13.3943 9.66527 12.9147 10.1749 12.385 10.6645C12.0553 10.3247 11.7355 9.97504 11.3858 9.66527C9.18735 7.44688 7.08888 5.53826 6.0996 4.72885C6.07253 4.70043 6.03997 4.67781 6.0039 4.66235C5.96783 4.64689 5.92899 4.63892 5.88975 4.63892C5.8505 4.63892 5.81167 4.64689 5.77559 4.66235C5.73952 4.67781 5.70697 4.70043 5.6799 4.72885C5.62497 4.78489 5.59421 4.86023 5.59421 4.9387C5.59421 5.01717 5.62497 5.09251 5.6799 5.14855C6.52928 5.94797 8.1581 7.8266 10.0667 9.88511L11.5357 11.4639C10.9961 12.0335 10.4964 12.5831 9.99677 13.1227C8.16809 15.1213 6.6392 16.88 5.65992 17.9492C5.60499 18.0052 5.57422 18.0806 5.57422 18.1591C5.57422 18.2375 5.60499 18.3129 5.65992 18.3689C5.68698 18.3973 5.71954 18.42 5.75561 18.4354C5.79168 18.4509 5.83052 18.4588 5.86976 18.4588C5.90901 18.4588 5.94784 18.4509 5.98392 18.4354C6.01999 18.42 6.05254 18.3973 6.07961 18.3689C7.24876 17.2597 9.23732 15.3711 11.4257 13.2326C11.7355 12.9329 12.0553 12.6031 12.3651 12.2933L13.0845 13.0228C15.163 15.1512 17.1616 17.0798 18.2308 18.0791C18.2956 18.1367 18.3799 18.1673 18.4665 18.1648C18.5531 18.1622 18.6355 18.1267 18.6967 18.0654C18.758 18.0041 18.7935 17.9218 18.7961 17.8352C18.7986 17.7485 18.768 17.6642 18.7104 17.5995C17.7911 16.6002 16.1923 14.7715 14.3736 12.793L13.1645 11.4839L14.5435 10.035C16.1623 8.3862 17.7611 6.7274 19.2501 5.35839C19.2842 5.32887 19.3121 5.29291 19.3324 5.25258C19.3526 5.21224 19.3647 5.16832 19.3679 5.12331C19.3712 5.07831 19.3655 5.03311 19.3513 4.99029C19.3371 4.94747 19.3146 4.90787 19.285 4.87375C19.2555 4.83963 19.2195 4.81166 19.1792 4.79144C19.1389 4.77121 19.095 4.75913 19.05 4.75589C19.0049 4.75264 18.9597 4.75829 18.9169 4.77251C18.8741 4.78673 18.8345 4.80925 18.8004 4.83877V4.87874Z" fill="white"/></svg>