<svg xmlns="http://www.w3.org/2000/svg" viewBox="0 0 34.62 34.62"><defs><style>.cls-1{isolation:isolate;}.cls-2{fill:#648c3c;}.cls-29,.cls-3{fill:#fff;}.cls-4{opacity:0.1;}.cls-5,.cls-6{fill:#bfd5df;}.cls-5{mix-blend-mode:multiply;}.cls-7{fill:#d9e9f0;}.cls-8{fill:#9fb9c8;}.cls-9{fill:#8daab9;}.cls-10{fill:#eff5f7;}.cls-11{fill:#143948;}.cls-12{fill:#a2bac3;}.cls-13{fill:#aec6ce;}.cls-14{fill:#0c1b1e;}.cls-15{fill:#1a2f36;}.cls-16{fill:#547c86;}.cls-17{fill:#194656;}.cls-18{fill:#7a9ba7;}.cls-19{fill:#6b909b;}.cls-20{fill:#c4d8dc;}.cls-21{fill:#a2bcc8;}.cls-22{fill:#e6efef;}.cls-23{fill:#608591;}.cls-24{fill:#13222a;}.cls-25{fill:#adc6d0;}.cls-26{fill:#7e9eac;}.cls-27{fill:#293e48;}.cls-28{fill:#215767;}.cls-29{font-size:22.48px;font-family:BerlinSansFBDemi-Bold, Berlin Sans FB Demi;font-weight:700;}</style></defs><g class="cls-1"><g id="Layer_1" data-name="Layer 1"><circle class="cls-2" cx="17.31" cy="17.31" r="17.31"/><circle class="cls-3" cx="17.31" cy="17.31" r="16.59"/><circle class="cls-2" cx="17.31" cy="17.31" r="16.29"/><g class="cls-4"><path class="cls-5" d="M19.67,27.92h0Zm1.11.14Zm7.38,1.33h0Z" transform="translate(-2.67 -1.78)"/><path class="cls-6" d="M33.16,24.88a.94.94,0,0,1-.08.49c.29-1.43-2.07-.58-2.71-.34l-7.43,2.74-.81-.07,8.06-3S32.8,23.58,33.16,24.88Z" transform="translate(-2.67 -1.78)"/><path class="cls-7" d="M33.15,24.81a.15.15,0,0,1,0,.07c-.36-1.3-3-.22-3-.22l-8.06,3-1-.09h0l5.42-2.14A25.18,25.18,0,0,1,31.83,24C32.13,24,33.06,24.25,33.15,24.81Z" transform="translate(-2.67 -1.78)"/><path class="cls-8" d="M30.37,25c.64-.24,3-1.09,2.71.34a3.28,3.28,0,0,1-1.65,1.36,10.23,10.23,0,0,1-1,.43h0c.07,0,2.21-1,2.19-1.71s-2.7.14-2.7.14l-6.86,2.25v0a.21.21,0,0,0-.15-.1Z" transform="translate(-2.67 -1.78)"/><path class="cls-9" d="M30.45,27.16h0c-.9.36-2.08.74-3.83,1.3l-.5.16-.87.28h0s-.73.24-1.8.55c-.92.27-2.08.59-3.26.85-5.79.64-2.49-.57-2.05-.73a2.43,2.43,0,0,0,.27,0l.13,0h0l.06,0h0a1,1,0,0,0,.46.13,2.83,2.83,0,0,0,1.54-.41h0s1.71-.61,2-.75.51-.31.52-.56a.17.17,0,0,0,0-.13v0l6.86-2.25s2.68-.87,2.7-.14S30.52,27.13,30.45,27.16Z" transform="translate(-2.67 -1.78)"/><path class="cls-10" d="M30.35,23.91h.13a6.91,6.91,0,0,1,1.25,0l.1,0a25.18,25.18,0,0,0-5.26,1.51L21.15,27.6a.84.84,0,0,0-.55-.42h0a1.71,1.71,0,0,0-.36,0h0L28,23.75a9,9,0,0,1,1.53-.49,2.77,2.77,0,0,1,1.71.3,2.4,2.4,0,0,0-.91-.11h-.12l-.66.08-.1,0c-.25.05-.45.11-.56.14a.15.15,0,0,0-.1.09l-.21.43s0,.07,0,.06a5.37,5.37,0,0,1,.75-.23l.1,0A7.22,7.22,0,0,1,30.35,23.91Zm-3.33.6a.06.06,0,0,0-.09-.07l0,0a.07.07,0,0,0,0,.05l0,.17a.07.07,0,0,0,.09.08l0,0s0,0,0,0Zm-.43.19a.07.07,0,0,0-.09-.08l0,0a.1.1,0,0,0,0,.05l0,.17a.07.07,0,0,0,.09.08l0,0a.07.07,0,0,0,0-.05Zm-.43.18a.06.06,0,0,0-.09-.07h0a.1.1,0,0,0,0,.05L26,25a.07.07,0,0,0,.09.08l0,0a.07.07,0,0,0,0-.05Zm-.43.18s-.05-.09-.09-.07l0,0a.07.07,0,0,0,0,0l0,.16c0,.05,0,.1.08.08l0,0a.07.07,0,0,0,0-.05Zm-.43.18s-.05-.09-.09-.07l0,0a.1.1,0,0,0,0,0l0,.16c0,.05,0,.1.08.08l0,0a.07.07,0,0,0,0-.05Zm-.43.18c0-.05-.05-.09-.09-.06h0a.05.05,0,0,0,0,.05l0,.16a.07.07,0,0,0,.08.08l0,0a.07.07,0,0,0,0-.05Zm-.44.19a.06.06,0,0,0-.08-.07h0a.05.05,0,0,0,0,.05l0,.16a.07.07,0,0,0,.08.08l0,0a.07.07,0,0,0,0-.05Zm-.43.18a.06.06,0,0,0-.08-.07l0,0s0,0,0,0l0,.16a.06.06,0,0,0,.08.07h0A.07.07,0,0,0,24,26Zm-.43.18a.06.06,0,0,0-.08-.07l0,0a.09.09,0,0,0,0,0l0,.15c0,.05,0,.09.08.07h0a.1.1,0,0,0,0-.05Zm-.43.18a.06.06,0,0,0-.08-.06h0a.1.1,0,0,0,0,0l0,.15c0,.05,0,.09.07.07h0a.1.1,0,0,0,0-.05Zm-.43.19a.06.06,0,0,0-.08-.07l0,0s0,0,0,0l0,.15c0,.05,0,.09.07.07h0a.1.1,0,0,0,0-.05Zm-.43.18a.06.06,0,0,0-.08-.07l0,0a.08.08,0,0,0,0,0l0,.15c0,.05,0,.09.07.07h0a.1.1,0,0,0,0,0Zm-.43.18a.05.05,0,0,0-.08-.06h0a.05.05,0,0,0,0,.05l0,.14a.06.06,0,0,0,.08.07h0a.1.1,0,0,0,0,0Zm-.43.18a.06.06,0,0,0-.08-.06h0a.05.05,0,0,0,0,.05l0,.14a.06.06,0,0,0,.08.07l0,0s0,0,0,0Zm-.43.18s0-.08-.08-.06l0,0s0,0,0,0l0,.14a.07.07,0,0,0,.08.07l0,0s0,0,0,0Z" transform="translate(-2.67 -1.78)"/><path class="cls-11" d="M31.73,23.93a6.91,6.91,0,0,0-1.25,0l-.13-.46a2.4,2.4,0,0,1,.91.11A1.83,1.83,0,0,1,31.73,23.93Z" transform="translate(-2.67 -1.78)"/><path class="cls-8" d="M30.85,29.55s0,0,0,.05l-.37.17-.69,0h0c0-.05,0-.1,0-.15a1.08,1.08,0,0,0,0-.19l1,.21S30.84,29.6,30.85,29.55Z" transform="translate(-2.67 -1.78)"/><path class="cls-7" d="M30.82,29.53s0,0,0,0-.08.05-.11.05l-1-.21a1,1,0,0,0-.05-.16Z" transform="translate(-2.67 -1.78)"/><path class="cls-10" d="M30.35,23.45l.13.46h-.13l-.12-.45Z" transform="translate(-2.67 -1.78)"/><path class="cls-7" d="M29.17,30.37a.7.7,0,0,1-.21,0,.82.82,0,0,1-.36-.15,1,1,0,0,1-.36-.86.58.58,0,0,1,0-.18A.69.69,0,0,1,29,28.7h0a.89.89,0,0,1,.62.53,1,1,0,0,1,.05.16,1.08,1.08,0,0,1,0,.19c0,.05,0,.1,0,.15a.93.93,0,0,1-.12.33h0A.66.66,0,0,1,29.17,30.37Zm0-.09a.61.61,0,0,0,.4-.3h0a.74.74,0,0,0,.1-.4.89.89,0,0,0-.39-.69.62.62,0,0,0-.26-.09.58.58,0,0,0-.46.12l0,0h0a.66.66,0,0,0-.21.44.8.8,0,0,0,.65.9.29.29,0,0,0,.13,0Z" transform="translate(-2.67 -1.78)"/><path class="cls-11" d="M30.23,23.46l.12.45a7.22,7.22,0,0,0-.85.12l.07-.49Z" transform="translate(-2.67 -1.78)"/><path class="cls-12" d="M29.68,29.57a.74.74,0,0,1-.1.4h0c-.19.24-.21,0-.21-.1a.87.87,0,0,0,0-.35h0s.06.18.19.16.1-.28.1-.34A.85.85,0,0,1,29.68,29.57Z" transform="translate(-2.67 -1.78)"/><path class="cls-9" d="M29.33,29.47l0-.08a.8.8,0,0,0-.53-.45.66.66,0,0,1,.53-.06.84.84,0,0,1,.35.47c0,.06,0,.32-.1.34s-.19-.16-.19-.16h0s0,0,0-.06Z" transform="translate(-2.67 -1.78)"/><path class="cls-13" d="M29.37,29.88c0,.08,0,.34.21.1a.61.61,0,0,1-.4.3A.67.67,0,0,0,29.37,29.88Z" transform="translate(-2.67 -1.78)"/><path class="cls-14" d="M29.37,29.88a.67.67,0,0,1-.19.4H29.1a.82.82,0,0,0,.21-.56,1.77,1.77,0,0,0,0-.26s0,0,0,.06A.87.87,0,0,1,29.37,29.88Z" transform="translate(-2.67 -1.78)"/><path class="cls-15" d="M29.31,29.73a.82.82,0,0,1-.21.56.29.29,0,0,1-.13,0,.8.8,0,0,1-.65-.9.66.66,0,0,1,.21-.44.8.8,0,0,0,.27,1.16C29.17,30.35,29.28,30,29.31,29.73Z" transform="translate(-2.67 -1.78)"/><path class="cls-15" d="M28.76,28.94a.8.8,0,0,1,.53.45l0,.08h0a1.77,1.77,0,0,1,0,.26.78.78,0,0,0-.08-.36.87.87,0,0,0-.7-.43l0,0h.07Z" transform="translate(-2.67 -1.78)"/><path class="cls-16" d="M29.63,30.06a1.21,1.21,0,0,1-.44.43,1.05,1.05,0,0,1-.32,0,2,2,0,0,0,.3-.14A.66.66,0,0,0,29.63,30.06Z" transform="translate(-2.67 -1.78)"/><path class="cls-17" d="M29.23,29.37a.78.78,0,0,1,.08.36c0,.27-.14.62-.51.38A.8.8,0,0,1,28.53,29h0A.87.87,0,0,1,29.23,29.37Zm-.38.47c.14-.05.25-.24.22-.33a.37.37,0,0,0-.35-.17h0s-.14-.05-.2.15a.3.3,0,0,0,.17.36A.14.14,0,0,0,28.85,29.84Z" transform="translate(-2.67 -1.78)"/><path class="cls-18" d="M29.29,28.88a.66.66,0,0,0-.53.06l-.12,0h0a.64.64,0,0,1,.39-.12A.62.62,0,0,1,29.29,28.88Z" transform="translate(-2.67 -1.78)"/><path class="cls-19" d="M29,30.38a.7.7,0,0,0,.21,0,2,2,0,0,1-.3.14.82.82,0,0,1-.49-.19,1,1,0,0,0,.22-.09A.82.82,0,0,0,29,30.38Z" transform="translate(-2.67 -1.78)"/><path class="cls-9" d="M28.85,29.84a.23.23,0,0,1-.16,0,.3.3,0,0,1-.12-.35.21.21,0,0,1,.08-.1c0,.06-.1.25.07.33a.24.24,0,0,0,.35-.19C29.1,29.6,29,29.79,28.85,29.84Z" transform="translate(-2.67 -1.78)"/><path class="cls-20" d="M29.07,29.51a.24.24,0,0,1-.35.19c-.17-.08-.09-.27-.07-.33l.07,0A.37.37,0,0,1,29.07,29.51Zm-.26,0,.23,0s-.28-.25-.35-.1S28.75,29.58,28.81,29.56Z" transform="translate(-2.67 -1.78)"/><path class="cls-19" d="M28.87,30.51a1.05,1.05,0,0,0,.32,0,3,3,0,0,1-1.61.41,1.21,1.21,0,0,1-.44-.13A2.57,2.57,0,0,0,28.87,30.51Z" transform="translate(-2.67 -1.78)"/><path class="cls-21" d="M29.07,28.7h0a.69.69,0,0,0-.75.49l-.23,0a.85.85,0,0,1,.67-.57A1,1,0,0,1,29.07,28.7Z" transform="translate(-2.67 -1.78)"/><path class="cls-22" d="M29,29.52l-.23,0c-.06,0-.19,0-.12-.14S29,29.52,29,29.52Z" transform="translate(-2.67 -1.78)"/><path class="cls-21" d="M26.94,30.64a.9.9,0,0,1-.18-.23,2.26,2.26,0,0,0,1.62-.09.82.82,0,0,0,.49.19,2.57,2.57,0,0,1-1.73.26h0l-.06,0A.85.85,0,0,1,26.94,30.64Z" transform="translate(-2.67 -1.78)"/><path class="cls-23" d="M28.57,28.91a.58.58,0,0,1,.46-.12.64.64,0,0,0-.39.12h-.07Z" transform="translate(-2.67 -1.78)"/><path class="cls-10" d="M29.57,23.54,29.5,24l-.1,0,.07-.49Z" transform="translate(-2.67 -1.78)"/><path class="cls-24" d="M28.65,29.37a.21.21,0,0,0-.08.1.3.3,0,0,0,.12.35.23.23,0,0,0,.16,0,.14.14,0,0,1-.16,0,.3.3,0,0,1-.17-.36c.06-.2.2-.15.2-.15h0Z" transform="translate(-2.67 -1.78)"/><path class="cls-11" d="M29.47,23.56l-.07.49a5.37,5.37,0,0,0-.75.23s-.07,0,0-.06l.21-.43a.15.15,0,0,1,.1-.09C29,23.67,29.22,23.61,29.47,23.56Z" transform="translate(-2.67 -1.78)"/><path class="cls-9" d="M28.24,29.37a1,1,0,0,0,.36.86,1,1,0,0,1-.22.09.92.92,0,0,1-.29-.46,1.14,1.14,0,0,1,0-.62l.23,0A.58.58,0,0,0,28.24,29.37Z" transform="translate(-2.67 -1.78)"/><path class="cls-22" d="M28.41,28.74a.76.76,0,0,0-.43.44,2.08,2.08,0,0,0-1.22.59,1.25,1.25,0,0,1,.71-.68A6.24,6.24,0,0,1,28.41,28.74Z" transform="translate(-2.67 -1.78)"/><path class="cls-25" d="M26.7,30.23a1,1,0,0,1,0-.18h0V30c0-.11.29-.51,1.36-.75a1.14,1.14,0,0,0,0,.62.92.92,0,0,0,.29.46,2.26,2.26,0,0,1-1.62.09.15.15,0,0,1,0-.06A.55.55,0,0,1,26.7,30.23Z" transform="translate(-2.67 -1.78)"/><path class="cls-20" d="M28.41,28.74a6.24,6.24,0,0,0-.94.35,1.25,1.25,0,0,0-.71.68A2.08,2.08,0,0,1,28,29.18.76.76,0,0,1,28.41,28.74Zm-1.63.9a1.21,1.21,0,0,1,.51-.49l.37-.2c.13-.05.24-.1.35-.13a2.82,2.82,0,0,1,.71-.15.85.85,0,0,0-.67.57c-1.07.24-1.31.64-1.36.75A.86.86,0,0,1,26.78,29.64Z" transform="translate(-2.67 -1.78)"/><path class="cls-7" d="M29.55,23.26a9,9,0,0,0-1.53.49l-7.79,3.4a2,2,0,0,0-.31.05l-.1,0,7.93-3.46A5.78,5.78,0,0,1,29.55,23.26Z" transform="translate(-2.67 -1.78)"/><path class="cls-7" d="M27.45,28.91l-1.13-.24-.2,0h0l.5-.16h0l1.38.34h0c-.11,0-.22.08-.35.13Z" transform="translate(-2.67 -1.78)"/><path class="cls-26" d="M27.45,28.91l.21,0-.37.2a1.21,1.21,0,0,0-.51.49h-.16C26.67,29.33,27.36,29,27.45,28.91Z" transform="translate(-2.67 -1.78)"/><path class="cls-8" d="M26.32,28.67l1.13.24c-.09.05-.78.42-.83.73l-2.72-.15,2.41-.81Z" transform="translate(-2.67 -1.78)"/><path class="cls-14" d="M27.08,30.74H27a.69.69,0,0,1-.13-.11h.12A.85.85,0,0,0,27.08,30.74Z" transform="translate(-2.67 -1.78)"/><path class="cls-15" d="M26.76,30.41a.9.9,0,0,0,.18.23h-.12a.62.62,0,0,1-.18-.39l.06,0a.55.55,0,0,0,0,.12A.15.15,0,0,0,26.76,30.41Z" transform="translate(-2.67 -1.78)"/><path class="cls-15" d="M26.82,30.65a.69.69,0,0,0,.13.11c-.21,0-.63,0-.68-.15A.91.91,0,0,0,26.82,30.65Z" transform="translate(-2.67 -1.78)"/><path class="cls-27" d="M26.69,30.05a1,1,0,0,0,0,.18l-.06,0a1,1,0,0,1,0-.18Z" transform="translate(-2.67 -1.78)"/><path class="cls-17" d="M26.64,30.26a.62.62,0,0,0,.18.39.91.91,0,0,1-.55,0A.86.86,0,0,1,26.64,30.26Z" transform="translate(-2.67 -1.78)"/><path class="cls-28" d="M26.64,30.08a1,1,0,0,0,0,.18.86.86,0,0,0-.37.35C26.21,30.44,26.52,30.18,26.64,30.08Z" transform="translate(-2.67 -1.78)"/><path class="cls-11" d="M26.93,24.44a.06.06,0,0,1,.09.07l0,.18s0,0,0,0l0,0a.07.07,0,0,1-.09-.08l0-.17a.07.07,0,0,1,0-.05Z" transform="translate(-2.67 -1.78)"/><path class="cls-26" d="M26.32,28.67h0l-2.41.81-.47,0c1.07-.31,1.8-.55,1.8-.55h0l.87-.28h0Z" transform="translate(-2.67 -1.78)"/><path class="cls-11" d="M26.5,24.62a.07.07,0,0,1,.09.08l0,.17a.07.07,0,0,1,0,.05l0,0a.07.07,0,0,1-.09-.08l0-.17a.1.1,0,0,1,0-.05Z" transform="translate(-2.67 -1.78)"/><path class="cls-11" d="M26.07,24.81a.06.06,0,0,1,.09.07l0,.17a.07.07,0,0,1,0,.05l0,0A.07.07,0,0,1,26,25l0-.17a.1.1,0,0,1,0-.05Z" transform="translate(-2.67 -1.78)"/><path class="cls-11" d="M25.64,25s.09,0,.09.07l0,.17a.07.07,0,0,1,0,.05l0,0c-.05,0-.09,0-.08-.08l0-.16a.07.07,0,0,1,0,0Z" transform="translate(-2.67 -1.78)"/><path class="cls-11" d="M25.21,25.17s.09,0,.09.07l0,.17a.07.07,0,0,1,0,.05l0,0s-.09,0-.08-.08l0-.16a.1.1,0,0,1,0,0Z" transform="translate(-2.67 -1.78)"/><path class="cls-11" d="M24.78,25.36s.09,0,.09.06l0,.17a.07.07,0,0,1,0,.05l0,0a.07.07,0,0,1-.08-.08l0-.16a.05.05,0,0,1,0-.05Z" transform="translate(-2.67 -1.78)"/><path class="cls-11" d="M24.35,25.54a.06.06,0,0,1,.08.07l0,.16a.07.07,0,0,1,0,.05l0,0a.07.07,0,0,1-.08-.08l0-.16a.05.05,0,0,1,0-.05Z" transform="translate(-2.67 -1.78)"/><path class="cls-11" d="M23.92,25.72a.06.06,0,0,1,.08.07L24,26a.07.07,0,0,1,0,.05h0a.06.06,0,0,1-.08-.07l0-.16s0,0,0,0Z" transform="translate(-2.67 -1.78)"/><path class="cls-11" d="M23.49,25.9a.06.06,0,0,1,.08.07l0,.16a.1.1,0,0,1,0,.05h0s-.08,0-.08-.07l0-.15a.09.09,0,0,1,0,0Z" transform="translate(-2.67 -1.78)"/><path class="cls-26" d="M20.7,29.23a1.34,1.34,0,0,0,.46-.5h0a1.13,1.13,0,0,0,.14-.56,1.23,1.23,0,0,0,0-.19l1.59.17c.08,0,.22.06.24-.15,0,.25-.16.39-.52.56s-2,.75-2,.75h0Z" transform="translate(-2.67 -1.78)"/><path class="cls-6" d="M23.09,27.87a.17.17,0,0,1,0,.13c0,.21-.16.16-.24.15L21.28,28s0-.07,0-.1l1.64.18S23.15,28.07,23.09,27.87Z" transform="translate(-2.67 -1.78)"/><path class="cls-10" d="M22.13,27.7l.81.07a.21.21,0,0,1,.15.1c.06.2-.19.19-.19.19l-1.64-.18a1.69,1.69,0,0,0-.11-.27Z" transform="translate(-2.67 -1.78)"/><path class="cls-11" d="M23.06,26.09a.06.06,0,0,1,.08.06l0,.16a.1.1,0,0,1,0,.05h0s-.08,0-.07-.07l0-.15a.1.1,0,0,1,0,0Z" transform="translate(-2.67 -1.78)"/><path class="cls-11" d="M22.63,26.27a.06.06,0,0,1,.08.07l0,.15a.1.1,0,0,1,0,.05h0s-.08,0-.07-.07l0-.15s0,0,0,0Z" transform="translate(-2.67 -1.78)"/><path class="cls-11" d="M22.2,26.45a.06.06,0,0,1,.08.07l0,.15a.1.1,0,0,1,0,0h0s-.08,0-.07-.07l0-.15a.08.08,0,0,1,0,0Z" transform="translate(-2.67 -1.78)"/><path class="cls-11" d="M21.77,26.64a.05.05,0,0,1,.08.06l0,.15a.1.1,0,0,1,0,0h0a.06.06,0,0,1-.08-.07l0-.14a.05.05,0,0,1,0-.05Z" transform="translate(-2.67 -1.78)"/><path class="cls-7" d="M20.61,29l.08,0a.62.62,0,0,0,.42-.36,1,1,0,0,0,.11-.46,1.09,1.09,0,0,0,0-.26.92.92,0,0,0-.35-.53.77.77,0,0,0-.27-.11.6.6,0,0,0-.48.15l0,0h0A.95.95,0,0,0,20.47,29Zm.67-1a1.23,1.23,0,0,1,0,.19,1.13,1.13,0,0,1-.14.56h0a.74.74,0,0,1-.48.37h-.21a.65.65,0,0,1-.37-.16,1.13,1.13,0,0,1-.37-1,1.29,1.29,0,0,1,.05-.21.74.74,0,0,1,.78-.58h0a.84.84,0,0,1,.55.42h0a1.69,1.69,0,0,1,.11.27S21.27,28,21.28,28Z" transform="translate(-2.67 -1.78)"/><path class="cls-11" d="M21.34,26.82a.06.06,0,0,1,.08.06l0,.15s0,0,0,0l0,0a.06.06,0,0,1-.08-.07l0-.14a.05.05,0,0,1,0-.05Z" transform="translate(-2.67 -1.78)"/><path class="cls-12" d="M21.22,28.17a1,1,0,0,1-.11.46c-.2.29-.22,0-.22-.1a.92.92,0,0,0,0-.4h0s.06.2.19.17.11-.31.11-.39A1.09,1.09,0,0,1,21.22,28.17Z" transform="translate(-2.67 -1.78)"/><path class="cls-9" d="M20.86,28.06a.36.36,0,0,0,0-.09.8.8,0,0,0-.54-.51.65.65,0,0,1,.55-.08.92.92,0,0,1,.35.53c0,.08,0,.37-.11.39s-.19-.17-.19-.17h0s0-.05,0-.07Z" transform="translate(-2.67 -1.78)"/><path class="cls-13" d="M20.89,28.53c0,.09,0,.39.22.1a.62.62,0,0,1-.42.36A.73.73,0,0,0,20.89,28.53Z" transform="translate(-2.67 -1.78)"/><path class="cls-14" d="M20.89,28.53a.73.73,0,0,1-.2.46l-.08,0a1.09,1.09,0,0,0,.23-.65h0a2.38,2.38,0,0,0,0-.3s0,.05,0,.07A.92.92,0,0,1,20.89,28.53Z" transform="translate(-2.67 -1.78)"/><path class="cls-11" d="M20.91,27s.08,0,.08.06l0,.15s0,0,0,0l0,0a.07.07,0,0,1-.08-.07l0-.14s0,0,0,0Z" transform="translate(-2.67 -1.78)"/><path class="cls-15" d="M20.84,28.36a1.09,1.09,0,0,1-.23.65h-.14A.95.95,0,0,1,20,27.47a1,1,0,0,0,.26,1.33C20.68,29.06,20.8,28.67,20.84,28.36Z" transform="translate(-2.67 -1.78)"/><path class="cls-15" d="M20.28,27.46a.8.8,0,0,1,.54.51.36.36,0,0,1,0,.09h0a2.38,2.38,0,0,1,0,.3,1,1,0,0,0-.08-.42.86.86,0,0,0-.72-.48l0,0h.07Z" transform="translate(-2.67 -1.78)"/><path class="cls-17" d="M20.84,28.36h0c0,.31-.16.7-.54.44A1,1,0,0,1,20,27.47h0a.86.86,0,0,1,.72.48A1,1,0,0,1,20.84,28.36Zm-.48.13a.41.41,0,0,0,.23-.38.34.34,0,0,0-.36-.19h0s-.15-.06-.2.17a.36.36,0,0,0,.16.42A.18.18,0,0,0,20.36,28.49Z" transform="translate(-2.67 -1.78)"/><path class="cls-16" d="M21.16,28.73a1.34,1.34,0,0,1-.46.5,1,1,0,0,1-.32,0l.3-.17A.74.74,0,0,0,21.16,28.73Z" transform="translate(-2.67 -1.78)"/><path class="cls-19" d="M20.7,29.23l-.12.08a2.83,2.83,0,0,1-1.54.41,1,1,0,0,1-.46-.13,2.53,2.53,0,0,0,1.8-.32A1,1,0,0,0,20.7,29.23Z" transform="translate(-2.67 -1.78)"/><path class="cls-18" d="M20.83,27.38a.65.65,0,0,0-.55.08l-.13,0h0a.69.69,0,0,1,.41-.16A.77.77,0,0,1,20.83,27.38Z" transform="translate(-2.67 -1.78)"/><path class="cls-19" d="M20.47,29.1h.21l-.3.17a.89.89,0,0,1-.51-.22l.23-.11A.65.65,0,0,0,20.47,29.1Z" transform="translate(-2.67 -1.78)"/><path class="cls-9" d="M20.36,28.49a.18.18,0,0,1-.16,0,.37.37,0,0,1-.13-.4.24.24,0,0,1,.09-.12c0,.07-.1.29.07.38s.36-.11.36-.22A.41.41,0,0,1,20.36,28.49Z" transform="translate(-2.67 -1.78)"/><path class="cls-20" d="M20.59,28.11c0,.11-.16.33-.36.22s-.1-.31-.07-.38a.11.11,0,0,1,.07,0A.34.34,0,0,1,20.59,28.11Zm-.26.06.23-.06s-.28-.27-.36-.1S20.26,28.19,20.33,28.17Z" transform="translate(-2.67 -1.78)"/><path class="cls-21" d="M20.6,27.17h0a.74.74,0,0,0-.78.58l-.23.06a.92.92,0,0,1,.69-.66A1.71,1.71,0,0,1,20.6,27.17Z" transform="translate(-2.67 -1.78)"/><path class="cls-22" d="M20.56,28.11l-.23.06c-.07,0-.2,0-.13-.16S20.56,28.11,20.56,28.11Z" transform="translate(-2.67 -1.78)"/><path class="cls-21" d="M18.37,29.43a.86.86,0,0,1-.17-.26,2.09,2.09,0,0,0,1.67-.12.89.89,0,0,0,.51.22,2.53,2.53,0,0,1-1.8.32h0l-.06,0Z" transform="translate(-2.67 -1.78)"/><path class="cls-23" d="M20.08,27.42a.6.6,0,0,1,.48-.15.69.69,0,0,0-.41.16h-.07Z" transform="translate(-2.67 -1.78)"/><path class="cls-24" d="M20.16,28a.24.24,0,0,0-.09.12.37.37,0,0,0,.13.4.18.18,0,0,0,.16,0,.18.18,0,0,1-.17,0,.36.36,0,0,1-.16-.42c0-.23.2-.17.2-.17h0A.11.11,0,0,0,20.16,28Z" transform="translate(-2.67 -1.78)"/><path class="cls-20" d="M20.23,27.15h0a.92.92,0,0,0-.69.66c-1.11.29-1.37.76-1.42.88a1,1,0,0,1,.05-.27h0a2,2,0,0,1,1.26-.69.87.87,0,0,1,.45-.52h0v0A2,2,0,0,1,20.23,27.15Z" transform="translate(-2.67 -1.78)"/><path class="cls-9" d="M19.73,28a1.13,1.13,0,0,0,.37,1l-.23.11a1,1,0,0,1-.3-.52,1.48,1.48,0,0,1,0-.72l.23-.06A1.29,1.29,0,0,0,19.73,28Z" transform="translate(-2.67 -1.78)"/><path class="cls-8" d="M19.64,30.42a14.79,14.79,0,0,1-4,.2c-1.22-.18,2-1.32,2-1.32h0a.24.24,0,0,0,0,.12h0c0,.12.23.16.43.16-.44.16-3.74,1.37,2.05.73l-.53.11Z" transform="translate(-2.67 -1.78)"/><path class="cls-6" d="M19.64,30.42h0a12.84,12.84,0,0,1-3.76.36s-1.59-.15-1.64-.46c.09.32,3.56-1.23,3.56-1.23h0a.57.57,0,0,0-.12.21h0s-3.27,1.14-2,1.32A14.79,14.79,0,0,0,19.64,30.42Z" transform="translate(-2.67 -1.78)"/><path class="cls-20" d="M18.86,27.65a3.42,3.42,0,0,1,.36-.2,4,4,0,0,1,.6-.23l.1,0v0h0a5.44,5.44,0,0,0-1,.42,1.44,1.44,0,0,0-.74.78h0a1.32,1.32,0,0,1,.58-.71Z" transform="translate(-2.67 -1.78)"/><path class="cls-22" d="M19.92,27.23a.87.87,0,0,0-.45.52,2,2,0,0,0-1.26.69h0a1.44,1.44,0,0,1,.74-.78A5.44,5.44,0,0,1,19.92,27.23Z" transform="translate(-2.67 -1.78)"/><path class="cls-25" d="M18.14,29a1.25,1.25,0,0,1,0-.21.2.2,0,0,1,0-.07c.05-.12.31-.59,1.42-.88a1.48,1.48,0,0,0,0,.72,1,1,0,0,0,.3.52,2.09,2.09,0,0,1-1.67.12l0-.06A1.06,1.06,0,0,1,18.14,29Z" transform="translate(-2.67 -1.78)"/><path class="cls-10" d="M14.12,26.94l1.75.17.21,0,3.14.31h0a3.42,3.42,0,0,0-.36.2L7.76,26.46c-.11,0-.31,0-.31-.1s.15-.06.22-.05h0Z" transform="translate(-2.67 -1.78)"/><path class="cls-6" d="M18.64,27.7,7.26,26.57a.16.16,0,0,0,.15-.18h0a.12.12,0,0,0-.12-.12l.38,0c-.07,0-.22,0-.22.05s.2.09.31.1l11.1,1.19-.1.06Z" transform="translate(-2.67 -1.78)"/><path class="cls-26" d="M18.08,28.8l-.08.07-.23,0,.2-.2c0-.54.61-.89.67-.93h.12a1.32,1.32,0,0,0-.58.71,1,1,0,0,0-.05.27.2.2,0,0,0,0,.07Z" transform="translate(-2.67 -1.78)"/><path class="cls-14" d="M18.52,29.55h0l-.13,0a.53.53,0,0,1-.13-.13l.11,0Z" transform="translate(-2.67 -1.78)"/><path class="cls-8" d="M16.87,28.67l-.07,0h-.08l-2.36-.43L6.42,26.78h0a5.49,5.49,0,0,0,.84-.21L18.64,27.7c-.06,0-.66.39-.67.93l-.2.2-.14,0Z" transform="translate(-2.67 -1.78)"/><path class="cls-15" d="M18.2,29.17a.86.86,0,0,0,.17.26l-.11,0a.72.72,0,0,1-.19-.44l.07,0a1.06,1.06,0,0,0,0,.14Z" transform="translate(-2.67 -1.78)"/><path class="cls-15" d="M18.12,29.58c-.2,0-.4,0-.43-.16a.86.86,0,0,0,.57,0,.53.53,0,0,0,.13.13A2.43,2.43,0,0,1,18.12,29.58Z" transform="translate(-2.67 -1.78)"/><path class="cls-27" d="M18.12,28.76a1.25,1.25,0,0,0,0,.21l-.07,0a.55.55,0,0,1,0-.21Z" transform="translate(-2.67 -1.78)"/><path class="cls-17" d="M18.07,29a.72.72,0,0,0,.19.44.86.86,0,0,1-.57,0h0A.92.92,0,0,1,18.07,29Z" transform="translate(-2.67 -1.78)"/><path class="cls-28" d="M18,28.87l.08-.07a.55.55,0,0,0,0,.21.92.92,0,0,0-.38.41.24.24,0,0,1,0-.12.57.57,0,0,1,.12-.21A2.15,2.15,0,0,1,18,28.87Z" transform="translate(-2.67 -1.78)"/><path class="cls-7" d="M17.77,28.83l.23,0a2.15,2.15,0,0,0-.19.22h0s-3.47,1.55-3.56,1.23c0-.15.13-.33.39-.52a17.92,17.92,0,0,1,2.17-1.15l.07,0c-.22.11-3.11,1.59-2.29,1.38a32,32,0,0,0,3-1.25Z" transform="translate(-2.67 -1.78)"/><path class="cls-10" d="M16.87,28.67l.76.13a32,32,0,0,1-3,1.25C13.76,30.26,16.65,28.78,16.87,28.67Z" transform="translate(-2.67 -1.78)"/><path class="cls-6" d="M16.72,28.64h.08a17.92,17.92,0,0,0-2.17,1.15h0l-.09-.59C14.73,29.69,16.57,28.72,16.72,28.64Z" transform="translate(-2.67 -1.78)"/><path class="cls-7" d="M14.36,28.21l2.36.43c-.15.08-2,1.05-2.19.57Z" transform="translate(-2.67 -1.78)"/><path class="cls-10" d="M16.35,26.49s0,0,0,0h0l-1.06-.38L15.2,26Z" transform="translate(-2.67 -1.78)"/><path class="cls-7" d="M16.38,26.52l-.17.12h0l-.56-.1-.33-.41,1.06.38Z" transform="translate(-2.67 -1.78)"/><path class="cls-10" d="M15.29,26.14l.33.41.47.58h0l-.21,0-1-1.36c-.07-.1-.15-.07-.17-.05l.06,0a.1.1,0,0,1,.12,0l.28.33Z" transform="translate(-2.67 -1.78)"/><path class="cls-7" d="M14.74,25.7s.1-.05.17.05l1,1.36-1.75-.17-.13-.6.27,0a3.33,3.33,0,0,0,.46-.3h0s0,0,0,0,0-.08,0-.08h-.45Z" transform="translate(-2.67 -1.78)"/><path class="cls-7" d="M14.7,26s.07,0,0,.08,0,0,0,0h0a3.45,3.45,0,0,1-.73.23l0-.19.16-.09.57,0a.05.05,0,0,0,.06,0s0,0-.06-.05h0Z" transform="translate(-2.67 -1.78)"/><path class="cls-10" d="M14.74,26a.05.05,0,0,1-.06,0l-.57,0,.14-.07h.43C14.74,26,14.74,26,14.74,26Z" transform="translate(-2.67 -1.78)"/><path class="cls-6" d="M14.72,26.08a3.33,3.33,0,0,1-.46.3l-.27,0v0A3.45,3.45,0,0,0,14.72,26.08Z" transform="translate(-2.67 -1.78)"/><path class="cls-10" d="M14.25,26l-.14.07L12.78,26a0,0,0,0,1,0,0s0,0,0,0Z" transform="translate(-2.67 -1.78)"/><path class="cls-7" d="M12.74,26s0,0,0,0h.08s0,0,0,0a0,0,0,0,0,0,0l1.33.06-.16.09,0,.19h-.17l-1.41-.19A1.24,1.24,0,0,0,12.7,26l0,0Z" transform="translate(-2.67 -1.78)"/><path class="cls-6" d="M14,26.31v0l-.17,0Z" transform="translate(-2.67 -1.78)"/><path class="cls-10" d="M12.7,25.93s.05,0,0,0,0,0-.14,0l-.19.13s0,0,0,0C12.65,25.91,12.7,25.93,12.7,25.93Z" transform="translate(-2.67 -1.78)"/><path class="cls-6" d="M12.74,26h0l0,0a1.24,1.24,0,0,1-.29.13h0L12.6,26C12.7,25.93,12.73,26,12.74,26Z" transform="translate(-2.67 -1.78)"/><path class="cls-10" d="M12.41,26.13Z" transform="translate(-2.67 -1.78)"/><path class="cls-7" d="M7.41,26.39a.16.16,0,0,1-.15.18,5.49,5.49,0,0,1-.84.21A6.09,6.09,0,0,1,7,26.44c.38-.2.42-.06.42-.05Z" transform="translate(-2.67 -1.78)"/><path class="cls-10" d="M7.29,26.27h0a.12.12,0,0,1,.12.12s0-.15-.42.05a6.09,6.09,0,0,0-.57.34s0,0,.06-.07C7.09,26.27,7.27,26.27,7.29,26.27Z" transform="translate(-2.67 -1.78)"/></g><text class="cls-29" transform="matrix(0.91, -0.12, 0.13, 0.99, 5.42, 26.35)">FG</text></g></g></svg>