<svg data-v-5ecf2272="" xmlns="http://www.w3.org/2000/svg" width="16" height="10" viewBox="0 0 16 10" fill="none" class="flex-shrink-0 duration-150 rotate-0 text-gray-900 lg:group-hover:text-primary"><path d="M15.1657 0.920372C10.6797 0.623372 6.19372 0.537373 1.70772 0.530373C0.862718 0.500373 0.383718 1.62637 1.01172 2.21137C3.24272 4.53637 5.63372 6.95437 7.93072 9.19837C8.28672 9.56037 8.87172 9.56037 9.22672 9.19837C11.3397 7.04937 13.4127 4.86137 15.4197 2.60637C15.7267 2.27337 15.7987 1.96637 15.7217 1.77437C16.2037 1.51237 16.0837 0.989372 15.1657 0.920372ZM8.62872 7.26737C7.12772 5.66737 5.56872 4.03937 4.01372 2.45137C7.55772 2.37137 11.1007 2.22737 14.6447 1.95537C12.5917 3.67937 10.5967 5.45937 8.62872 7.26737Z" fill="currentColor"/></svg>