<svg data-v-820bb542="" xmlns="http://www.w3.org/2000/svg" width="22" height="23" viewBox="0 0 22 23" fill="none"><path d="M17.9396 2.00303C16.8419 3.03276 15.7273 4.05914 14.7349 5.1836C13.1383 7.00133 11.6363 8.89219 10.0955 10.7482C6.5617 13.3922 3.97048 17.005 0.904753 20.1426C0.767805 20.2835 0.758536 20.6836 0.825735 20.8762C0.971644 21.2599 1.35996 21.2852 1.7825 21.1611C3.1712 20.7659 4.41194 19.889 5.48786 18.8277C8.07952 16.2724 10.7543 13.7918 13.0145 10.914C13.3413 10.5956 13.6621 10.2838 13.9834 9.96047C15.9949 7.91576 17.9459 5.80459 19.6243 3.48395C20.1014 2.82044 20.2947 2.09354 19.7605 1.68459C19.2705 1.31553 18.5505 1.43594 17.9396 2.00303Z" fill="#EEF4B7"/><path d="M19.813 19.4298C18.8422 18.2798 17.8755 17.1129 16.8045 16.063C15.0729 14.3735 13.2632 12.7746 11.4904 11.1388C9.03496 7.47148 5.56268 4.69472 2.58986 1.46899C2.45627 1.32485 2.05723 1.29466 1.86134 1.35168C1.4706 1.47732 1.42499 1.86378 1.52676 2.29223C1.84881 3.69971 2.65952 4.98464 3.66305 6.11463C6.07929 8.83648 8.4165 11.6374 11.1721 14.0452C11.4729 14.3882 11.7674 14.7248 12.0735 15.0626C14.0102 17.1784 16.0163 19.2372 18.246 21.0348C18.8836 21.5459 19.5994 21.777 20.0357 21.2649C20.4352 20.7897 20.3526 20.0643 19.813 19.4298Z" fill="#EEF4B7"/></svg>