<svg width="32" height="32" viewBox="0 0 32 32" fill="#eef4b7" xmlns="http://www.w3.org/2000/svg" data-v-820bb542=""><path d="M28.0419 8.52177C26.5422 8.39509 25.0336 8.25351 23.5339 8.26842C21.1148 8.29822 18.7046 8.44726 16.2943 8.54413C11.9649 7.68719 7.54613 8.179 3.1631 8.00016C2.96671 7.9927 2.6632 8.25351 2.56501 8.43235C2.37754 8.79748 2.61857 9.103 2.99349 9.334C4.21645 10.1015 5.69829 10.4368 7.20691 10.5263C10.8401 10.7424 14.4733 11.0702 18.1243 10.8243C18.5796 10.8541 19.0259 10.8839 19.4812 10.9063C22.3467 11.033 25.2211 11.0702 28.0687 10.7647C28.881 10.6753 29.5506 10.3325 29.497 9.66187C29.4434 9.05084 28.8721 8.59629 28.0419 8.52177Z" fill="currentColor"/><path d="M28.0419 15.5218C26.5422 15.3951 25.0336 15.2535 23.5339 15.2684C21.1148 15.2982 18.7046 15.4473 16.2943 15.5441C11.9649 14.6872 7.54613 15.179 3.1631 15.0002C2.96671 14.9927 2.6632 15.2535 2.56501 15.4324C2.37754 15.7975 2.61857 16.103 2.99349 16.334C4.21645 17.1015 5.69829 17.4368 7.20691 17.5263C10.8401 17.7424 14.4733 18.0702 18.1243 17.8243C18.5796 17.8541 19.0259 17.8839 19.4812 17.9063C22.3467 18.033 25.2211 18.0702 28.0687 17.7647C28.881 17.6753 29.5506 17.3325 29.497 16.6619C29.4434 16.0434 28.8721 15.5888 28.0419 15.5218Z" fill="currentColor"/><path d="M28.0419 22.3478C26.5422 22.2634 25.0336 22.169 23.5339 22.1789C21.1148 22.1988 18.7046 22.2982 16.2943 22.3628C11.9649 21.7915 7.54613 22.1193 3.1631 22.0001C2.96671 21.9951 2.6632 22.169 2.56501 22.2882C2.37754 22.5317 2.61857 22.7353 2.99349 22.8893C4.21645 23.401 5.69829 23.6246 7.20691 23.6842C10.8401 23.8282 14.4733 24.0468 18.1243 23.8829C18.5796 23.9028 19.0259 23.9226 19.4812 23.9375C22.3467 24.022 25.2211 24.0468 28.0687 23.8431C28.881 23.7835 29.5506 23.555 29.497 23.1079C29.4434 22.6956 28.8721 22.3926 28.0419 22.3478Z" fill="currentColor"/></svg>