<svg data-v-748ebe1f="" xmlns="http://www.w3.org/2000/svg" width="21" height="20" viewBox="0 0 21 20" fill="none"><g clip-path="url(#clip0_993_3217)"><path d="M19.113 6.71045C17.0561 6.71045 14.9993 6.73281 12.9424 6.75517C12.1599 4.6536 11.3774 2.52967 10.6397 0.405748C10.5055 0.0033203 9.8348 -0.197894 9.63359 0.271606C8.69459 2.44025 7.75559 4.60888 6.88366 6.82224C4.96095 6.86695 3.03824 6.91167 1.13789 6.95638C0.578959 6.97874 0.176531 7.73888 0.64603 8.14131C1.31674 8.70024 1.9651 9.28152 2.61346 9.88516C3.17238 10.3994 3.70895 10.9359 4.24553 11.4949C4.44674 11.7184 4.73738 11.9644 4.89388 12.2327C5.0951 12.5904 4.87152 12.9034 4.73738 13.2387C3.97724 15.1614 3.28417 17.1289 2.61346 19.0963C2.41224 19.6552 3.15003 20.2365 3.64188 19.9011C5.11745 18.9174 6.61538 17.9337 8.11331 16.9947C8.56045 16.7264 9.00759 16.4358 9.45473 16.1675C9.87952 15.9216 9.94659 15.9887 10.349 16.2346C10.6844 16.4358 11.0197 16.6594 11.3327 16.8829C12.7412 17.8666 14.0379 18.9621 15.5135 19.8564C15.9607 20.1247 16.4972 19.6776 16.3631 19.2081C15.983 17.7101 15.6253 16.2346 15.3123 14.7143C15.1558 13.9542 14.9099 13.1269 14.8652 12.3668C14.8428 11.6737 15.4688 11.3607 15.9383 10.9583C17.1456 9.90752 18.3305 8.83438 19.5154 7.73888C19.9179 7.35881 19.6049 6.71045 19.113 6.71045ZM14.731 10.4888C14.2168 10.9136 13.8367 11.3384 13.7697 12.0091C13.7026 12.7692 13.9485 13.6188 14.105 14.3789C14.3509 15.5862 14.6192 16.7935 14.9099 18.0008C13.8591 17.2183 12.8977 16.3687 11.8469 15.5862C11.2209 15.1391 10.4832 14.4907 9.6783 14.5802C9.0523 14.6472 8.44866 15.1391 7.93445 15.4521C6.83895 16.1228 5.74345 16.8159 4.64795 17.5313C4.71502 17.3524 4.75974 17.1959 4.82681 17.0171C5.29631 15.6757 5.92231 14.3566 6.32474 12.9928C6.77188 11.4725 4.91624 10.1311 3.95488 9.21445C3.61953 8.90145 3.28417 8.58845 2.92646 8.27545C4.26788 8.23074 5.58695 8.27545 6.92838 8.14131C8.35923 8.00717 9.25352 3.80403 10.0584 2.01546C10.6844 3.84874 11.3327 5.68203 11.9811 7.49295C12.0705 7.73888 12.2717 7.94009 12.5624 7.94009C14.2615 7.94009 15.9607 7.91774 17.6374 7.89538C16.6761 8.78966 15.7147 9.66159 14.731 10.4888Z" fill="currentColor"/></g><defs><clipPath id="clip0_993_3217"><rect width="20" height="20" fill="white" transform="translate(0.0703125)"/></clipPath></defs></svg>