<svg data-v-748ebe1f="" xmlns="http://www.w3.org/2000/svg" viewBox="0 0 16 16" fill="none" class="w-[19px] pb-1 flex-shrink-0 aspect-1"><path d="M8.29602 0.75L5.79602 6L1.29602 6.25L4.79602 9.75L3.04602 15.25L8.29602 12.25L12.796 15.5L11.796 9.25L15.046 6H10.296L8.29602 0.75Z" fill="currentColor"/><path d="M15.5308 5.36836C13.8853 5.36836 12.2398 5.38625 10.5943 5.40413C9.96831 3.72288 9.34231 2.02374 8.75208 0.324599C8.64477 0.00265624 8.1082 -0.158315 7.94723 0.217284C7.19603 1.9522 6.44483 3.68711 5.74729 5.45779C4.20912 5.49356 2.67095 5.52933 1.15067 5.5651C0.703524 5.58299 0.381581 6.1911 0.757181 6.51305C1.29375 6.96019 1.81244 7.42522 2.33112 7.90813C2.77826 8.3195 3.20752 8.74876 3.63678 9.1959C3.79775 9.37476 4.03026 9.5715 4.15546 9.78613C4.31643 10.0723 4.13758 10.3227 4.03026 10.591C3.42215 12.1292 2.86769 13.7031 2.33112 15.277C2.17015 15.7242 2.76038 16.1892 3.15386 15.9209C4.33432 15.1339 5.53266 14.347 6.731 13.5958C7.08872 13.3812 7.44643 13.1486 7.80414 12.934C8.14397 12.7373 8.19763 12.7909 8.51957 12.9877C8.78786 13.1486 9.05614 13.3275 9.30654 13.5063C10.4333 14.2933 11.4707 15.1697 12.6512 15.8851C13.0089 16.0998 13.4381 15.7421 13.3308 15.3665C13.0268 14.1681 12.7406 12.9877 12.4902 11.7714C12.365 11.1633 12.1683 10.5016 12.1325 9.89344C12.1146 9.33899 12.6154 9.08859 12.991 8.76664C13.9568 7.92602 14.9048 7.0675 15.8527 6.1911C16.1746 5.88705 15.9242 5.36836 15.5308 5.36836ZM12.0252 8.39104C11.6138 8.73087 11.3097 9.0707 11.2561 9.60727C11.2024 10.2154 11.3992 10.895 11.5244 11.5032C11.7211 12.469 11.9357 13.4348 12.1683 14.4006C11.3276 13.7746 10.5585 13.095 9.71791 12.469C9.21711 12.1113 8.62688 11.5926 7.983 11.6641C7.4822 11.7178 6.99929 12.1113 6.58792 12.3617C5.71152 12.8982 4.83512 13.4527 3.95872 14.025C4.01238 13.8819 4.04815 13.7567 4.1018 13.6137C4.4774 12.5405 4.9782 11.4853 5.30015 10.3942C5.65786 9.17801 4.17335 8.10487 3.40426 7.37156C3.13598 7.12116 2.86769 6.87076 2.58152 6.62036C3.65466 6.58459 4.70992 6.62036 5.78306 6.51305C6.92774 6.40573 7.64317 3.04322 8.28706 1.61237C8.78786 3.07899 9.30654 4.54562 9.82522 5.99436C9.89677 6.1911 10.0577 6.35208 10.2903 6.35208C11.6496 6.35208 13.0089 6.33419 14.3503 6.3163C13.5812 7.03173 12.8121 7.72927 12.0252 8.39104Z" fill="currentColor"/></svg>