<svg data-v-634db118="" width="24" height="22" viewBox="0 0 24 22" fill="none" xmlns="http://www.w3.org/2000/svg"><path fill-rule="evenodd" clip-rule="evenodd" d="M9.84508 17.8986C9.4167 17.8082 8.99605 17.6869 8.58671 17.5355C8.18572 17.3914 7.80241 17.2053 7.44369 16.9807C6.81999 16.6003 6.30271 16.0786 5.9371 15.4615C5.57147 14.8443 5.36867 14.1503 5.3464 13.4402C5.29701 12.0102 5.75976 10.6071 6.65721 9.46604C7.22973 8.70107 7.97097 8.06729 8.82789 7.61008C9.69543 7.16801 10.6488 6.90357 11.6277 6.83339C12.9291 6.76108 14.2232 7.06425 15.3441 7.70402C16.4652 8.34379 17.362 9.29103 17.9196 10.4243C18.2521 10.9599 18.4684 11.5547 18.5554 12.1729C18.6423 12.7911 18.5983 13.4198 18.4259 14.0212C18.2533 14.6225 17.956 15.184 17.5518 15.6719C17.1477 16.1597 16.6449 16.5638 16.074 16.8596C16.0268 16.8857 15.9853 16.9206 15.9522 16.9623C15.9192 17.0039 15.8951 17.0515 15.8814 17.1023C15.8678 17.153 15.8647 17.2058 15.8726 17.2577C15.8805 17.3096 15.899 17.3595 15.9272 17.4044C15.9533 17.4495 15.9886 17.4891 16.031 17.5208C16.0733 17.5526 16.1219 17.5757 16.1738 17.5889C16.2257 17.602 16.2799 17.605 16.333 17.5976C16.3862 17.5901 16.4372 17.5724 16.483 17.5456C19.8491 15.7703 20.2371 12.5929 18.9683 9.94012C18.3315 8.58981 17.2963 7.44926 15.9913 6.66021C14.6862 5.87115 13.1689 5.46837 11.6277 5.50194C10.447 5.57659 9.29776 5.90031 8.26163 6.45009C6.98018 7.14565 5.93391 8.18127 5.24777 9.4333C4.56162 10.6854 4.26459 12.1008 4.39214 13.5108C4.44274 14.3534 4.7036 15.1719 5.15262 15.8971C5.60164 16.6222 6.22564 17.2326 6.9718 17.6767C7.39023 17.9094 7.83314 18.0987 8.29309 18.2416C8.73786 18.3887 9.19358 18.5034 9.65633 18.5845C9.75357 18.6023 9.85423 18.5827 9.93662 18.5299C10.019 18.4772 10.0765 18.3953 10.0968 18.302C10.1137 18.2168 10.0974 18.1285 10.051 18.0541C10.0046 17.9797 9.93126 17.9243 9.84508 17.8986Z" fill="white"/><path fill-rule="evenodd" clip-rule="evenodd" d="M12.0132 16.3822C12.4914 16.3095 12.937 16.1429 13.3074 15.8985C13.6777 15.654 13.9602 15.34 14.1274 14.9866C14.1548 14.9499 14.1722 14.9093 14.1784 14.8673C14.1848 14.8252 14.1798 14.7827 14.1639 14.7421C14.1481 14.7016 14.1217 14.664 14.0863 14.6317C14.051 14.5993 14.0074 14.5729 13.9583 14.5541C13.9108 14.5329 13.8582 14.5195 13.8037 14.5146C13.7493 14.5098 13.694 14.5136 13.6416 14.5258C13.5891 14.5381 13.5404 14.5585 13.4985 14.5858C13.4567 14.6131 13.4225 14.6468 13.398 14.6847C13.1922 14.9274 12.8968 15.1169 12.5502 15.2289C12.2035 15.341 11.8213 15.3702 11.453 15.313C11.2356 15.2935 11.0224 15.2523 10.8187 15.1906C10.271 15.0559 9.79812 14.7828 9.47612 14.4153C9.45872 14.3759 9.43005 14.3399 9.39223 14.3103C9.35441 14.2806 9.3084 14.2578 9.25762 14.2436C9.20686 14.2296 9.15262 14.2245 9.09894 14.2288C9.04527 14.233 8.99353 14.2466 8.94756 14.2684C8.85798 14.2989 8.78767 14.3555 8.75201 14.4258C8.71634 14.4962 8.71824 14.5746 8.75729 14.6438C8.97742 15.2565 9.48648 15.7834 10.1844 16.121C10.5083 16.2672 10.8685 16.359 11.2415 16.3903C11.4978 16.4178 11.758 16.4151 12.0132 16.3822Z" fill="white"/><path fill-rule="evenodd" clip-rule="evenodd" d="M23.886 11.958C23.8238 11.6884 23.7263 11.4286 23.5962 11.1854C23.3602 10.7583 23.0393 10.3858 22.6539 10.0917C22.2685 9.79775 21.8271 9.58862 21.3578 9.47774C21.2814 8.87992 21.1611 8.28871 20.9981 7.7091C20.6276 6.40866 19.9823 5.20628 19.1071 4.18616C18.232 3.16603 17.1482 2.35279 15.9317 1.80338C14.6449 1.30872 13.2728 1.08518 11.8986 1.14635C10.5243 1.2075 9.17665 1.55207 7.93731 2.15915C6.66272 2.68982 5.53586 3.53097 4.6559 4.60864C3.77593 5.68631 3.16982 6.96743 2.89089 8.33931C2.89089 8.58326 2.89089 8.82722 2.83093 9.07117C2.32241 9.16764 1.84145 9.37829 1.4231 9.68779C1.00475 9.99722 0.659547 10.3978 0.412643 10.8602C0.282568 11.1033 0.185103 11.3632 0.122849 11.6327C-0.0409496 12.1966 -0.0409496 12.7967 0.122849 13.3607C0.27165 13.7857 0.522269 14.1663 0.852034 14.468C1.1818 14.7697 1.58031 14.983 2.01151 15.0887C2.21017 15.1521 2.41426 15.1963 2.62108 15.2208C2.82378 15.2411 3.02795 15.2411 3.23065 15.2208C3.32213 15.2176 3.40976 15.1826 3.47888 15.1214C3.54799 15.0604 3.59441 14.9771 3.61038 14.8853C3.65091 14.9052 3.69531 14.9156 3.74029 14.9156C3.78526 14.9156 3.82966 14.9052 3.87019 14.8853C3.93136 14.8573 3.98299 14.8114 4.01856 14.7535C4.05413 14.6956 4.07205 14.6284 4.07005 14.5602C3.83603 13.5587 3.68891 12.5383 3.63036 11.5107C3.57469 10.5061 3.64521 9.49849 3.84022 8.51211C4.15388 7.342 4.73853 6.26535 5.54523 5.37228C6.35193 4.47919 7.35722 3.79567 8.47693 3.37891C9.56159 2.85003 10.7395 2.54784 11.941 2.49022C13.1425 2.43261 14.3432 2.62074 15.472 3.04347C16.5345 3.49892 17.4884 4.18109 18.2694 5.04388C19.0503 5.90666 19.6401 6.92994 19.9988 8.04453C20.7552 10.366 20.688 12.8836 19.8089 15.1599C19.7895 15.2085 19.7798 15.2607 19.7804 15.3132C19.7809 15.3657 19.7918 15.4175 19.8122 15.4659C19.8327 15.5141 19.8624 15.5577 19.8995 15.5941C19.9367 15.6306 19.9806 15.6592 20.0288 15.6782C20.0905 15.6985 20.1569 15.6985 20.2186 15.6782C19.9409 16.2695 19.6062 16.8313 19.2193 17.3554C18.8499 17.8648 18.4166 18.3226 17.9302 18.7175C17.1824 19.4023 16.2181 19.7918 15.2122 19.8153C15.1677 19.7333 15.0962 19.6699 15.0102 19.6365C14.9243 19.603 14.8294 19.6015 14.7425 19.6323C14.6446 19.673 14.5664 19.7514 14.5252 19.8504C14.484 19.9494 14.4831 20.0611 14.5227 20.1609C14.5227 20.2931 14.5227 20.3845 14.3927 20.476C14.2328 20.5998 14.0429 20.6771 13.8431 20.6996C13.5641 20.7536 13.2764 20.7397 13.0037 20.6589C12.7271 20.5901 12.4682 20.4618 12.2443 20.2829C12.0744 20.1609 11.9445 20.0795 12.0044 19.9576C12.0796 19.8093 12.1984 19.6885 12.3442 19.612L13.0237 19.3884C13.2153 19.3563 13.4091 19.3393 13.6033 19.3375H14.2229C14.3116 19.3523 14.4025 19.3305 14.4755 19.2772C14.5486 19.2238 14.5979 19.1432 14.6126 19.0529C14.6213 19.0069 14.6209 18.9595 14.6115 18.9136C14.6021 18.8677 14.5839 18.8241 14.5579 18.7854C14.5319 18.7466 14.4986 18.7136 14.46 18.6879C14.4214 18.6623 14.3781 18.6447 14.3328 18.6361L13.0037 18.4126C12.8342 18.3973 12.6636 18.3973 12.4941 18.4126C12.3144 18.4267 12.1368 18.4608 11.9645 18.5142C11.6812 18.5861 11.4207 18.7302 11.2074 18.9331C10.9941 19.1358 10.8351 19.3904 10.7453 19.673C10.6797 19.9947 10.7159 20.3293 10.8487 20.6287C10.9816 20.9282 11.2042 21.1772 11.4848 21.34C11.8848 21.6086 12.339 21.7823 12.8139 21.8482C13.2673 21.8949 13.7253 21.8358 14.1529 21.6754C14.5621 21.5187 14.912 21.234 15.1522 20.8623C15.1959 20.768 15.2294 20.6691 15.2521 20.5675C16.2879 20.7077 17.3403 20.5007 18.25 19.9779C19.0782 19.4879 19.7669 18.7874 20.2486 17.945C20.6856 17.2157 20.9934 16.4141 21.158 15.5766H21.4378C21.644 15.5437 21.8476 15.4962 22.0473 15.4343C22.4639 15.3168 22.8461 15.0982 23.1612 14.7972C23.4763 14.4962 23.7147 14.1218 23.856 13.7063C24.0372 13.1395 24.0476 12.5307 23.886 11.958ZM2.74099 14.3568C2.59775 14.308 2.45758 14.2503 2.32129 14.184C2.0877 14.068 1.88283 13.9 1.72193 13.6923C1.56103 13.4847 1.44824 13.2427 1.39195 12.9846C1.32492 12.6491 1.32492 12.3035 1.39195 11.9681C1.46141 11.5511 1.61771 11.1539 1.85037 10.8032C2.08304 10.4526 2.3867 10.1567 2.74099 9.93517C2.73106 10.4916 2.75108 11.0481 2.80095 11.6022C2.90084 12.6031 3.08811 13.593 3.36056 14.5602C3.3006 14.5602 3.26063 14.4889 3.19068 14.4889L2.74099 14.3568ZM21.7275 14.4991C20.2186 15.2412 21.6276 13.5437 21.4577 10.3112C22.089 10.7793 22.5156 11.4796 22.6469 12.2629C22.7126 12.5984 22.7126 12.9438 22.6469 13.2794C22.5909 13.5444 22.4751 13.7926 22.3086 14.0043C22.1421 14.216 21.9295 14.3854 21.6876 14.4991H21.7275Z" fill="white"/><path fill-rule="evenodd" clip-rule="evenodd" d="M8.66259 9.87474C8.4363 9.8669 8.21098 9.91486 7.99946 10.0158C7.52424 10.2497 7.09678 10.6136 6.74829 11.0809C6.65087 11.1581 6.58177 11.2805 6.55599 11.4213C6.53022 11.5621 6.54986 11.7099 6.61066 11.8327C6.78583 12.2243 9.113 11.8327 9.56343 11.8327C9.76294 11.8425 9.96059 11.8846 10.1514 11.958C10.2651 12.0411 10.4 12.0663 10.5281 12.0284C10.6561 11.9904 10.7677 11.8923 10.8396 11.7544C10.9053 11.6144 10.925 11.4481 10.8947 11.2904C10.8644 11.1326 10.7862 10.9957 10.6769 10.9086C10.3027 10.4417 9.83653 10.1067 9.3257 9.93743C9.10911 9.86956 8.88486 9.8484 8.66259 9.87474Z" fill="white"/><path fill-rule="evenodd" clip-rule="evenodd" d="M16.3179 11.7992C16.3625 11.6762 16.3758 11.529 16.3547 11.3899C16.3337 11.2509 16.28 11.1314 16.2056 11.0575C15.9476 10.5916 15.6272 10.2318 15.2699 10.0069C15.1118 9.90729 14.9433 9.86013 14.774 9.86786C14.6037 9.85178 14.4329 9.88317 14.2688 9.96048C13.8876 10.1309 13.5395 10.4608 13.2583 10.9185C13.178 11.0069 13.1216 11.143 13.1007 11.2984C13.0798 11.4539 13.096 11.6166 13.146 11.7528C13.1982 11.8921 13.2816 11.9913 13.3781 12.0291C13.4746 12.0666 13.5762 12.0396 13.6606 11.9536C13.8033 11.8813 13.9512 11.8398 14.1003 11.8301C15.1576 11.6909 16.1214 12.3553 16.3179 11.7992Z" fill="white"/></svg>