<svg width="22" height="22" viewBox="0 0 22 22" fill="none" xmlns="http://www.w3.org/2000/svg" data-v-634db118=""><g clip-path="url(#clip0_3522_25746)"><path fill-rule="evenodd" clip-rule="evenodd" d="M18.7945 3.19459C16.7267 1.13555 13.9765 0.00104467 11.0462 0C5.00812 0 0.094017 4.88643 0.091916 10.8927C0.0908655 12.8128 0.595617 14.6869 1.55417 16.3386L0 21.984L5.807 20.4692C7.40685 21.3373 9.20841 21.7943 11.0415 21.7949H11.0462C17.0832 21.7949 21.9979 16.9079 22 10.9016C22.001 7.99068 20.8628 5.25415 18.7945 3.19511V3.19459ZM11.0462 19.9552H11.0425C9.40903 19.9547 7.80658 19.518 6.40842 18.6933L6.07592 18.4969L2.62986 19.3958L3.54954 16.0544L3.33314 15.7118C2.42186 14.2702 1.94022 12.6039 1.94127 10.8933C1.94337 5.90132 6.0276 1.83966 11.0499 1.83966C13.4817 1.8407 15.7676 2.78352 17.4866 4.4952C19.2058 6.20637 20.1517 8.48167 20.1507 10.9006C20.1485 15.8931 16.0643 19.9547 11.0462 19.9547V19.9552ZM16.0401 13.1743C15.7665 13.038 14.4209 12.3798 14.1698 12.2889C13.9187 12.198 13.7365 12.1526 13.5542 12.4253C13.372 12.698 12.8473 13.3112 12.6876 13.4924C12.5279 13.6742 12.3682 13.6966 12.0946 13.5603C11.821 13.424 10.9391 13.1367 9.89334 12.2095C9.07977 11.4876 8.53032 10.5966 8.3707 10.3239C8.21101 10.0513 8.35389 9.90395 8.49041 9.76867C8.61331 9.64645 8.76407 9.45058 8.90114 9.29178C9.03827 9.13298 9.08343 9.01915 9.17479 8.83786C9.26622 8.65609 9.22051 8.49735 9.15224 8.36097C9.08392 8.22466 8.53667 6.88485 8.30818 6.34007C8.08598 5.80939 7.86017 5.88147 7.69261 5.8726C7.53292 5.86476 7.35069 5.86319 7.16791 5.86319C6.98512 5.86319 6.68886 5.9311 6.43781 6.20376C6.18677 6.47639 5.47978 7.13505 5.47978 8.47431C5.47978 9.81358 6.46042 11.1085 6.59749 11.2903C6.73457 11.472 8.52769 14.2211 11.2731 15.4005C11.926 15.681 12.436 15.8486 12.8336 15.974C13.4891 16.1814 14.0857 16.1521 14.5574 16.0821C15.0832 16.0038 16.1767 15.4235 16.4047 14.7878C16.6326 14.1521 16.6326 13.6068 16.5644 13.4934C16.4961 13.3801 16.3133 13.3116 16.0396 13.1753L16.0401 13.1743Z" fill="white"/></g><defs><clipPath id="clip0_3522_25746"><rect width="22" height="22" fill="white"/></clipPath></defs></svg>