<svg width="22" height="22" viewBox="0 0 22 22" fill="none" xmlns="http://www.w3.org/2000/svg" data-v-634db118=""><path d="M18.9439 15.1651C17.2593 15.1651 15.8887 13.6752 15.8887 11.8426C15.8887 10.01 17.2593 8.52002 18.9439 8.52002C20.6285 8.52002 21.9991 10.01 21.9991 11.8426C21.9991 13.6752 20.6285 15.1651 18.9439 15.1651ZM18.9439 10.2773C18.2699 10.2773 17.7219 10.9799 17.7219 11.8426C17.7219 12.7052 18.2699 13.4078 18.9439 13.4078C19.6179 13.4078 20.1658 12.7052 20.1658 11.8426C20.1658 10.9799 19.6179 10.2773 18.9439 10.2773Z" fill="white"/><path d="M14.3639 15.165C13.8573 15.165 13.4473 14.7543 13.4473 14.2484V6.91663C13.4473 6.41065 13.8573 6 14.3639 6C14.8705 6 15.2805 6.41065 15.2805 6.91663V14.249C15.2805 14.7543 14.8705 15.165 14.3639 15.165Z" fill="white"/><path d="M11.6897 8.67335C11.3451 8.67335 11.0491 8.86601 10.8924 9.146C10.4284 8.75401 9.86113 8.52002 9.24582 8.52002C7.68521 8.52002 6.41992 10.0073 6.41992 11.8426C6.41992 13.6772 7.68521 15.1651 9.24582 15.1651C9.86113 15.1651 10.4284 14.9318 10.8924 14.5391C11.0491 14.8205 11.3451 15.0118 11.6897 15.0118C12.1964 15.0118 12.6064 14.6011 12.6064 14.0951V9.58865C12.6064 9.084 12.1964 8.67335 11.6897 8.67335ZM9.51247 13.4085C8.8165 13.4085 8.25252 12.7079 8.25252 11.8432C8.25252 10.9786 8.8165 10.278 9.51247 10.278C10.2084 10.278 10.7724 10.9786 10.7724 11.8432C10.7731 12.7079 10.2091 13.4085 9.51247 13.4085Z" fill="white"/><path d="M5.50225 14.9358H0.995749C0.619097 14.9358 0.280443 14.7271 0.109116 14.3925C-0.0615447 14.0572 -0.0302127 13.6605 0.190446 13.3565L3.71631 8.44337H1.07241C0.565765 8.44337 0.15578 8.03272 0.15578 7.52674C0.15578 7.02076 0.565765 6.61011 1.07241 6.61011H5.50225C5.84557 6.61011 6.16089 6.8021 6.31755 7.10809C6.47488 7.41341 6.44688 7.78206 6.24689 8.06139L2.62969 13.1025H5.50291C6.00956 13.1025 6.41955 13.5132 6.41955 14.0192C6.41888 14.5251 6.0089 14.9358 5.50225 14.9358ZM1.68306 14.4225L1.67772 14.4311C1.67839 14.4278 1.68106 14.4251 1.68306 14.4225Z" fill="white"/></svg>