   <svg className="text-[#eef4b7]" xmlns="http://www.w3.org/2000/svg" width="16" height="10" viewBox="0 0 16 10" fill="none" data-v-ecb57835=""><path d="M14.5739 0.920555C10.0879 0.623555 5.60192 0.537556 1.11592 0.530556C0.270921 0.500556 -0.208078 1.62656 0.419922 2.21156C2.65092 4.53656 5.04192 6.95456 7.33892 9.19855C7.69492 9.56055 8.27992 9.56055 8.63492 9.19855C10.7479 7.04955 12.8209 4.86156 14.8279 2.60656C15.1349 2.27356 15.2069 1.96656 15.1299 1.77456C15.6119 1.51256 15.4919 0.989555 14.5739 0.920555ZM8.03692 7.26756C6.53592 5.66756 4.97692 4.03956 3.42192 2.45156C6.96592 2.37156 10.5089 2.22756 14.0529 1.95556C11.9999 3.67956 10.0049 5.45956 8.03692 7.26756Z" fill="#FCFFDF"></path></svg>