<svg data-v-748ebe1f="" xmlns="http://www.w3.org/2000/svg" width="21" height="20" viewBox="0 0 21 20" fill="none"><g clip-path="url(#clip0_993_3185)"><path d="M0.712084 17.5472C0.825292 18.1887 1.27812 18.7547 1.91963 18.9811C2.07057 19.0189 2.22152 19.0566 2.4102 19.0943H2.82529H3.61774L10.0706 19.1321L16.5234 19.0943H17.3159H17.731C17.8819 19.0943 18.0706 19.0566 18.2215 18.9811C18.863 18.7547 19.3159 18.1887 19.4291 17.5472C19.4668 17.2075 19.4291 16.9811 19.4668 16.6792V15.8868V14.2641L19.3913 7.81132L19.3159 6.22641V5.43396C19.3159 5.16981 19.2781 4.83018 19.1272 4.56603C18.863 4.03773 18.297 3.69811 17.6932 3.66037L16.3725 3.69811C16.4102 3.20754 16.4102 2.71698 16.4479 2.22641C16.4479 1.88679 16.297 1.50943 16.0706 1.28301C15.8064 1.01886 15.4668 0.86792 15.1272 0.86792C14.7876 0.86792 14.4102 1.01886 14.1838 1.28301C13.9196 1.54717 13.7687 1.88679 13.8064 2.22641C13.8064 2.64151 13.8442 3.01886 13.8442 3.43396C13.0517 3.39622 12.2215 3.39622 11.4291 3.43396C11.3913 3.0566 11.3913 2.64151 11.4291 2.22641C11.4291 1.88679 11.2781 1.50943 11.0517 1.28301C10.7876 1.01886 10.4479 0.86792 10.1083 0.86792C9.76869 0.86792 9.39133 1.01886 9.16491 1.28301C8.90076 1.54717 8.74982 1.88679 8.78756 2.22641C8.74982 2.64151 8.74982 3.0566 8.78756 3.43396C7.9951 3.39622 7.16491 3.39622 6.37246 3.43396C6.4102 3.01886 6.4102 2.64151 6.4102 2.22641C6.4102 1.88679 6.25925 1.50943 6.03284 1.28301C5.76869 1.01886 5.42906 0.86792 5.08944 0.86792C4.74982 0.86792 4.37246 1.01886 4.14605 1.28301C3.84416 1.54717 3.69322 1.88679 3.69322 2.22641C3.69322 2.71698 3.73095 3.20754 3.76869 3.66037H2.44793C1.84416 3.66037 1.27812 4.03773 1.01397 4.56603C0.900763 4.83018 0.825292 5.13207 0.825292 5.39622V6.18867L0.787556 7.81132L0.712084 14.2641V15.8868V16.6792C0.712084 16.9434 0.674348 17.1698 0.712084 17.5472ZM18.8253 14.2641V15.8868V16.6792C18.8253 16.9434 18.8253 17.2453 18.7876 17.434C18.7121 17.8491 18.4102 18.2264 17.9951 18.3396C17.8819 18.3774 17.8064 18.3774 17.6932 18.4151C17.6177 18.4151 17.4291 18.4151 17.3159 18.4151H16.5234L10.0706 18.3774H3.61774H2.82529C2.71208 18.3774 2.5234 18.3774 2.44793 18.3774C2.33473 18.3774 2.25925 18.3396 2.14605 18.3019C1.73095 18.1887 1.42907 17.8113 1.35359 17.3962C1.31586 17.2075 1.35359 16.9057 1.31586 16.6415V15.8491V14.2264L1.24039 9.01886C2.67435 9.16981 4.10831 9.24528 5.54227 9.28302C7.05171 9.35849 8.56114 9.35849 10.0328 9.35849C11.5423 9.35849 13.0517 9.32075 14.5234 9.28302C15.9574 9.24528 17.4291 9.13207 18.863 9.01886L18.8253 14.2641ZM1.31586 4.71698C1.50454 4.26415 1.95737 3.96226 2.44793 3.92452L3.76869 3.88679C3.80642 4.37735 3.84416 4.86792 3.8819 5.32075C3.91963 5.62264 4.07057 5.92452 4.29699 6.07547C4.5234 6.26415 4.82529 6.33962 5.05171 6.30188C4.78756 6.26415 4.56114 6.1132 4.44793 5.96226C4.29699 5.77358 4.25925 5.54717 4.25925 5.35849C4.29699 4.83018 4.33473 4.33962 4.37246 3.81132C4.4102 3.28301 4.4102 2.79245 4.44793 2.26415C4.44793 1.92452 4.74982 1.66037 5.08944 1.66037C5.42906 1.66037 5.73095 1.92452 5.73095 2.26415C5.69322 2.71698 5.73095 3.16981 5.73095 3.62264C5.73095 3.69811 5.69322 3.73584 5.69322 3.77358C5.73095 4.30188 5.76869 4.79245 5.80642 5.32075C5.84416 5.50943 5.76869 5.73584 5.65548 5.92452C5.50454 6.1132 5.31586 6.26415 5.05171 6.30188C5.31586 6.33962 5.58001 6.30188 5.80642 6.1132C6.03284 5.92452 6.22152 5.66037 6.22152 5.32075C6.25925 4.90566 6.29699 4.5283 6.29699 4.1132C7.08944 4.15094 7.88189 4.15094 8.71208 4.1132C8.74982 4.5283 8.74982 4.90566 8.78756 5.32075C8.82529 5.62264 8.97623 5.92452 9.20265 6.1132C9.42906 6.30188 9.73095 6.33962 9.95737 6.30188H9.9951C9.73095 6.26415 9.54227 6.1132 9.39133 5.92452C9.24039 5.73584 9.20265 5.50943 9.24039 5.32075C9.27812 4.79245 9.31586 4.30188 9.35359 3.77358C9.35359 3.69811 9.35359 3.66037 9.31586 3.62264C9.35359 3.16981 9.35359 2.67924 9.35359 2.22641C9.35359 1.88679 9.65548 1.62264 9.9951 1.62264C10.3347 1.62264 10.6366 1.88679 10.6366 2.22641C10.6743 2.67924 10.6743 3.16981 10.6743 3.62264C10.6366 3.66037 10.6366 3.73584 10.6366 3.77358C10.6743 4.30188 10.7121 4.79245 10.7498 5.32075C10.7876 5.50943 10.7121 5.73584 10.5989 5.92452C10.4479 6.1132 10.2593 6.26415 9.9951 6.30188H10.0328C10.297 6.33962 10.5611 6.30188 10.7876 6.1132C11.014 5.92452 11.2026 5.66037 11.2026 5.32075C11.2404 4.90566 11.2781 4.5283 11.2781 4.1132C12.0706 4.15094 12.863 4.15094 13.6932 4.1132C13.731 4.5283 13.731 4.90566 13.7687 5.32075C13.8064 5.62264 13.9574 5.92452 14.1838 6.1132C14.4102 6.30188 14.7121 6.33962 14.9385 6.30188H14.9762C14.7121 6.26415 14.5234 6.1132 14.3725 5.92452C14.2215 5.73584 14.1838 5.50943 14.2215 5.32075C14.2593 4.79245 14.297 4.30188 14.3347 3.77358C14.3347 3.69811 14.3347 3.66037 14.297 3.62264C14.4102 3.16981 14.4479 2.71698 14.4479 2.26415C14.4479 1.92452 14.7498 1.66037 15.0894 1.66037C15.4291 1.66037 15.731 1.92452 15.731 2.26415C15.7687 2.75471 15.7687 3.28301 15.8064 3.81132C15.8442 4.33962 15.8819 4.83018 15.9196 5.35849C15.9951 5.77358 15.6555 6.26415 15.1272 6.33962C15.3913 6.37735 15.6555 6.30188 15.8819 6.1132C16.1083 5.92452 16.2593 5.66037 16.297 5.35849C16.3347 4.86792 16.3725 4.37735 16.4102 3.92452L17.731 3.96226C18.2215 4 18.6743 4.30188 18.863 4.75471C18.9762 4.98113 19.014 5.20754 18.9762 5.47169V6.26415L18.9385 7.88679V9.0566C17.5045 8.90566 16.0328 8.83018 14.5989 8.79245C13.0894 8.71698 11.58 8.71698 10.1083 8.71698C8.59888 8.71698 7.08944 8.75471 5.61774 8.79245C4.18378 8.83018 2.74982 8.90566 1.31586 9.0566V7.88679L1.20265 6.22641V5.43396C1.16491 5.13207 1.20265 4.90566 1.31586 4.71698Z" fill="currentColor"/><path d="M4.59972 10.9058C4.44878 10.9058 4.33557 10.9435 4.18463 10.9812C4.03368 11.0567 3.92047 11.1322 3.76953 11.2831C3.92047 11.4341 4.03368 11.5095 4.18463 11.585C4.33557 11.6227 4.44878 11.6605 4.59972 11.6605C4.75066 11.6605 4.86387 11.6227 5.01481 11.585C5.16576 11.5095 5.27897 11.4341 5.42991 11.2831C5.27897 11.1322 5.16576 11.0567 5.01481 10.9812C4.86387 10.9435 4.71293 10.9058 4.59972 10.9058Z" fill="currentColor"/><path d="M8.25988 10.9058C8.10893 10.9058 7.99573 10.9435 7.84478 10.9812C7.69384 11.0567 7.58063 11.1322 7.42969 11.2831C7.58063 11.4341 7.69384 11.5095 7.84478 11.585C7.99573 11.6227 8.10893 11.6605 8.25988 11.6605C8.41082 11.6605 8.52403 11.6227 8.67497 11.585C8.82591 11.5095 8.93912 11.4341 9.09006 11.2831C8.93912 11.1322 8.82591 11.0567 8.67497 10.9812C8.52403 10.9435 8.37308 10.9058 8.25988 10.9058Z" fill="currentColor"/><path d="M11.881 10.9058C11.73 10.9058 11.6168 10.9435 11.4659 10.9812C11.3149 11.0567 11.2017 11.1322 11.0508 11.2831C11.2017 11.4341 11.3149 11.5095 11.4659 11.585C11.6168 11.6227 11.73 11.6605 11.881 11.6605C12.0319 11.6605 12.1451 11.6227 12.2961 11.585C12.447 11.5095 12.5602 11.4341 12.7112 11.2831C12.5602 11.1322 12.447 11.0567 12.2961 10.9812C12.1829 10.9435 12.0319 10.9058 11.881 10.9058Z" fill="currentColor"/><path d="M15.5431 10.9058C15.3921 10.9058 15.2789 10.9435 15.128 10.9812C14.977 11.0567 14.8638 11.1322 14.7129 11.2831C14.8638 11.4341 14.977 11.5095 15.128 11.585C15.2789 11.6227 15.3921 11.6605 15.5431 11.6605C15.694 11.6605 15.8072 11.6227 15.9582 11.585C16.1091 11.5095 16.2223 11.4341 16.3733 11.2831C16.2223 11.1322 16.1091 11.0567 15.9582 10.9812C15.845 10.9435 15.694 10.9058 15.5431 10.9058Z" fill="currentColor"/><path d="M4.59972 13.5095C4.44878 13.5095 4.33557 13.5473 4.18463 13.585C4.03368 13.6605 3.92047 13.7359 3.76953 13.8869C3.92047 14.0378 4.03368 14.1133 4.18463 14.1888C4.33557 14.2265 4.44878 14.2642 4.59972 14.2642C4.75066 14.2642 4.86387 14.2265 5.01481 14.1888C5.16576 14.1133 5.27897 14.0378 5.42991 13.8869C5.27897 13.7359 5.16576 13.6605 5.01481 13.585C4.86387 13.5473 4.71293 13.5095 4.59972 13.5095Z" fill="currentColor"/><path d="M8.25988 13.5095C8.10893 13.5095 7.99573 13.5473 7.84478 13.585C7.69384 13.6605 7.58063 13.7359 7.42969 13.8869C7.58063 14.0378 7.69384 14.1133 7.84478 14.1888C7.99573 14.2265 8.10893 14.2642 8.25988 14.2642C8.41082 14.2642 8.52403 14.2265 8.67497 14.1888C8.82591 14.1133 8.93912 14.0378 9.09006 13.8869C8.93912 13.7359 8.82591 13.6605 8.67497 13.585C8.52403 13.5473 8.37308 13.5095 8.25988 13.5095Z" fill="currentColor"/><path d="M11.881 13.5095C11.73 13.5095 11.6168 13.5473 11.4659 13.585C11.3149 13.6605 11.2017 13.7359 11.0508 13.8869C11.2017 14.0378 11.3149 14.1133 11.4659 14.1888C11.6168 14.2265 11.73 14.2642 11.881 14.2642C12.0319 14.2642 12.1451 14.2265 12.2961 14.1888C12.447 14.1133 12.5602 14.0378 12.7112 13.8869C12.5602 13.7359 12.447 13.6605 12.2961 13.585C12.1829 13.5473 12.0319 13.5095 11.881 13.5095Z" fill="currentColor"/><path d="M15.5431 13.5095C15.3921 13.5095 15.2789 13.5473 15.128 13.585C14.977 13.6605 14.8638 13.7359 14.7129 13.8869C14.8638 14.0378 14.977 14.1133 15.128 14.1888C15.2789 14.2265 15.3921 14.2642 15.5431 14.2642C15.694 14.2642 15.8072 14.2265 15.9582 14.1888C16.1091 14.1133 16.2223 14.0378 16.3733 13.8869C16.2223 13.7359 16.1091 13.6605 15.9582 13.585C15.845 13.5473 15.694 13.5095 15.5431 13.5095Z" fill="currentColor"/><path d="M4.59972 16.1133C4.44878 16.1133 4.33557 16.151 4.18463 16.1888C4.03368 16.2642 3.92047 16.3397 3.76953 16.4906C3.92047 16.6416 4.03368 16.7171 4.18463 16.7925C4.33557 16.8303 4.44878 16.868 4.59972 16.868C4.75066 16.868 4.86387 16.8303 5.01481 16.7925C5.16576 16.7171 5.27897 16.6416 5.42991 16.4906C5.27897 16.3397 5.16576 16.2642 5.01481 16.1888C4.86387 16.151 4.71293 16.1133 4.59972 16.1133Z" fill="currentColor"/><path d="M8.25988 16.1133C8.10893 16.1133 7.99573 16.151 7.84478 16.1888C7.69384 16.2642 7.58063 16.3397 7.42969 16.4906C7.58063 16.6416 7.69384 16.7171 7.84478 16.7925C7.99573 16.8303 8.10893 16.868 8.25988 16.868C8.41082 16.868 8.52403 16.8303 8.67497 16.7925C8.82591 16.7171 8.93912 16.6416 9.09006 16.4906C8.93912 16.3397 8.82591 16.2642 8.67497 16.1888C8.52403 16.151 8.37308 16.1133 8.25988 16.1133Z" fill="currentColor"/><path d="M11.881 16.1133C11.73 16.1133 11.6168 16.151 11.4659 16.1888C11.3149 16.2642 11.2017 16.3397 11.0508 16.4906C11.2017 16.6416 11.3149 16.7171 11.4659 16.7925C11.6168 16.8303 11.73 16.868 11.881 16.868C12.0319 16.868 12.1451 16.8303 12.2961 16.7925C12.447 16.7171 12.5602 16.6416 12.7112 16.4906C12.5602 16.3397 12.447 16.2642 12.2961 16.1888C12.1829 16.151 12.0319 16.1133 11.881 16.1133Z" fill="currentColor"/><path d="M15.5431 16.1133C15.3921 16.1133 15.2789 16.151 15.128 16.1888C14.977 16.2642 14.8638 16.3397 14.7129 16.4906C14.8638 16.6416 14.977 16.7171 15.128 16.7925C15.2789 16.8303 15.3921 16.868 15.5431 16.868C15.694 16.868 15.8072 16.8303 15.9582 16.7925C16.1091 16.7171 16.2223 16.6416 16.3733 16.4906C16.2223 16.3397 16.1091 16.2642 15.9582 16.1888C15.845 16.151 15.694 16.1133 15.5431 16.1133Z" fill="currentColor"/></g><defs><clipPath id="clip0_993_3185"><rect width="20" height="20" fill="white" transform="translate(0.0703125)"/></clipPath></defs></svg>