<svg data-v-748ebe1f="" xmlns="http://www.w3.org/2000/svg" width="21" height="20" viewBox="0 0 21 20" fill="none"><path d="M1.65417 13.2066C1.71867 13.4072 1.80898 13.5969 1.90153 13.7858C1.99597 13.9734 2.07347 14.1702 2.18258 14.3499C4.10001 17.8198 7.22529 18.4983 7.44041 18.6146L8.05132 18.7696C9.81432 19.2839 12.9148 19.0612 15.2531 17.4141C15.936 16.9345 16.5809 16.3859 17.0977 15.7268C17.6209 15.0761 18.0671 14.3637 18.4006 13.5993C18.7248 12.8312 18.9468 12.0246 19.0673 11.2026L19.0676 11.2006C19.0806 11.1113 19.0417 11.0185 18.9607 10.9668C18.8504 10.8963 18.7039 10.9285 18.6334 11.0388C17.5204 12.7802 15.6687 13.9783 13.5428 14.2412C12.5075 14.3748 11.4388 14.2673 10.4394 13.9377C9.4403 13.6059 8.51141 13.0499 7.73604 12.3199C8.4702 13.0893 9.376 13.7121 10.3865 14.0868C11.3938 14.465 12.4905 14.6222 13.5722 14.5271C14.6536 14.4397 15.7244 14.1089 16.6606 13.5412C17.3021 13.1588 17.8797 12.6721 18.3814 12.1153C16.9755 17.0951 11.656 19.1548 8.20901 18.1012L7.64573 17.9541C7.52448 17.8652 4.59169 17.1909 2.80076 14.0045C2.69811 13.8398 2.62665 13.6583 2.53763 13.4861C2.45051 13.3127 2.36506 13.1385 2.30489 12.9536L2.10246 12.4079L1.95548 11.8446C1.89864 11.6584 1.8679 11.4668 1.84076 11.2743C1.81393 11.0822 1.77333 10.8914 1.757 10.698C1.57496 5.86739 4.31866 2.69837 7.93757 1.67617C7.38195 2.17733 6.89627 2.75396 6.51488 3.39468C5.44228 5.16548 5.16323 7.51266 5.97166 9.66847C6.346 10.6788 6.96751 11.5851 7.73604 12.3199C7.00733 11.5436 6.45266 10.6144 6.1215 9.61536C5.7926 8.616 5.68537 7.54773 5.81832 6.51262C6.08668 4.33792 7.31626 2.51052 9.01765 1.42333C9.09393 1.37444 9.13894 1.28384 9.12496 1.18838C9.10594 1.05834 8.98511 0.968363 8.85507 0.987406L8.85317 0.987672C8.03114 1.10797 7.22437 1.32947 6.45597 1.65318C5.69128 1.98627 4.97837 2.43194 4.32729 2.95485C3.6676 3.47127 3.12021 4.1176 2.6399 4.79993C1.2019 6.8417 1.01523 8.79808 1.08175 10.7611C1.09784 10.97 1.13879 11.1767 1.16653 11.3847C1.19459 11.5929 1.22677 11.8004 1.28567 12.0025L1.44048 12.6135L1.65417 13.2066Z" fill="currentColor"/><path d="M15.3964 7.69997C14.9879 7.49265 14.5693 7.36071 14.1484 7.24605C13.9132 7.18464 13.6765 7.13399 13.439 7.08947C13.5681 6.88521 13.6921 6.67738 13.8073 6.46327C14.0098 6.07693 14.1982 5.68051 14.3244 5.24015C13.9509 5.50542 13.6394 5.81461 13.3422 6.1339C13.1873 6.30398 13.0396 6.47923 12.8971 6.65816C12.7941 6.45395 12.6853 6.25226 12.5682 6.05418C12.3423 5.68102 12.1004 5.31483 11.7888 4.979C11.8227 5.43586 11.9262 5.86235 12.0458 6.28185C12.1111 6.50218 12.1846 6.71891 12.2639 6.93313C12.036 6.91557 11.8073 6.90441 11.5773 6.90212C11.1412 6.90206 10.7026 6.92021 10.2539 7.01407C10.6623 7.22223 11.0808 7.35471 11.5017 7.46895C11.7366 7.53023 11.9729 7.58079 12.21 7.62509C12.081 7.82895 11.9572 8.03644 11.8422 8.2502C11.6393 8.6363 11.4514 9.03303 11.3259 9.47388C11.7001 9.20912 12.012 8.90021 12.3089 8.5807C12.4635 8.41093 12.6109 8.23604 12.753 8.05742C12.8558 8.26125 12.9644 8.46254 13.0812 8.66025C13.3067 9.03356 13.5491 9.39955 13.8615 9.73502C13.8284 9.27781 13.7253 8.85112 13.6054 8.43177C13.54 8.21131 13.4664 7.99445 13.3869 7.78014C13.6147 7.79752 13.8433 7.80866 14.0731 7.81092C14.5093 7.81059 14.9478 7.79297 15.3964 7.69997Z" fill="currentColor"/></svg>