<svg data-v-748ebe1f="" xmlns="http://www.w3.org/2000/svg" width="21" height="20" viewBox="0 0 21 20" fill="none"><g clip-path="url(#clip0_993_3172)"><path d="M15.9765 12.0291C15.9836 11.9731 15.9755 11.9163 15.9531 11.8645C15.9307 11.8128 15.8948 11.768 15.8491 11.7348C17.8687 11.582 19.3889 8.92494 17.8347 7.34697C17.6477 7.16911 17.4347 7.02083 17.2031 6.90723C17.0801 6.8205 16.9409 6.75966 16.7937 6.72839C16.6466 6.69713 16.4946 6.69609 16.3471 6.72535C16.3077 6.73747 16.2721 6.75941 16.2435 6.78911C16.215 6.81881 16.1945 6.85529 16.184 6.89511C16.1735 6.93492 16.1733 6.97676 16.1835 7.01667C16.1936 7.05658 16.2138 7.09325 16.242 7.12321C16.4959 7.40425 16.9149 7.41496 17.2022 7.66348C18.2651 8.40192 17.8413 10.0522 16.8767 10.6837C16.5001 10.9439 16.0649 11.1067 15.61 11.1576C15.1551 11.2086 14.6947 11.146 14.2699 10.9756C12.8994 10.3078 13.1099 8.19336 14.1871 7.34024C14.6392 6.93252 15.2226 7.18658 15.7351 7.29526C15.7946 7.3096 15.8571 7.30235 15.9117 7.2748C15.9663 7.24726 16.0092 7.20121 16.033 7.14489C16.0567 7.08857 16.0597 7.02565 16.0413 6.96736C16.0229 6.90907 15.9844 6.85921 15.9327 6.82669C15.4262 6.48762 14.859 6.73948 14.3603 6.95892C13.994 7.10563 13.6688 7.33878 13.4122 7.63847C13.1752 7.55501 12.9193 7.54088 12.6745 7.59775C12.6816 7.54179 12.6735 7.48494 12.6511 7.43318C12.6287 7.38141 12.5928 7.33661 12.5471 7.30348C14.5667 7.15069 16.0869 4.49364 14.5327 2.91565C14.3458 2.73779 14.1328 2.58949 13.9011 2.47589C13.7782 2.38915 13.6389 2.3283 13.4917 2.29704C13.3446 2.26577 13.1926 2.26474 13.0451 2.29401C13.0057 2.30613 12.9701 2.32807 12.9416 2.35777C12.913 2.38747 12.8926 2.42395 12.8821 2.46376C12.8715 2.50357 12.8713 2.54541 12.8815 2.58532C12.8916 2.62522 12.9118 2.66189 12.94 2.69185C13.0665 2.82677 13.2296 2.92185 13.4093 2.96546C13.6555 3.04648 13.8792 3.18422 14.0624 3.36757C14.2455 3.55092 14.3831 3.77475 14.4638 4.02101C14.9436 5.9271 12.5919 7.29961 10.9679 6.5442C9.59738 5.87646 9.80787 3.76197 10.8851 2.90887C11.3371 2.50121 11.9208 2.75518 12.4332 2.86389C12.4926 2.87824 12.5552 2.87099 12.6097 2.84344C12.6643 2.8159 12.7073 2.76985 12.731 2.71353C12.7548 2.65721 12.7577 2.59428 12.7393 2.53599C12.721 2.4777 12.6824 2.42784 12.6307 2.39532C12.1242 2.05625 11.5571 2.30813 11.0583 2.52755C9.11631 3.22568 8.90373 6.53249 11.0124 7.15759C10.9563 7.36677 10.9563 7.58704 11.0124 7.79622C11.0685 8.00541 11.1787 8.19613 11.3319 8.3492C11.4317 8.44814 11.557 8.51735 11.6939 8.54907C11.8308 8.58079 11.9738 8.57378 12.107 8.52882C12.2401 8.48385 12.3581 8.40272 12.4477 8.29449C12.5373 8.18626 12.5951 8.05522 12.6144 7.91604C12.7724 8.00234 12.9422 8.0648 13.1184 8.1014C12.9567 8.43252 12.8567 8.79033 12.8233 9.15731C12.584 9.45179 12.2993 9.70633 11.98 9.91137C11.5897 9.67997 11.2517 9.37015 10.9872 9.00147C11.01 8.56614 10.9018 8.13397 10.6767 7.76069C10.4515 7.38742 10.1197 7.09015 9.72401 6.90724C9.6011 6.8205 9.46184 6.75965 9.31469 6.72838C9.16754 6.69711 9.01557 6.69608 8.86801 6.72534C8.82865 6.73745 8.79303 6.75939 8.76451 6.78909C8.73598 6.81879 8.7155 6.85527 8.70499 6.89509C8.69448 6.9349 8.69428 6.97674 8.70443 7.01665C8.71457 7.05656 8.73472 7.09323 8.76297 7.12319C8.88945 7.2581 9.05253 7.3532 9.23224 7.39682C9.47842 7.47783 9.70213 7.61556 9.8853 7.79891C10.0685 7.98226 10.206 8.2061 10.2868 8.45236C10.7666 10.3583 8.41479 11.731 6.79081 10.9755C5.42032 10.3078 5.63084 8.19331 6.70805 7.34021C6.8201 7.24668 6.95131 7.17887 7.09242 7.14158C7.23353 7.10428 7.38111 7.0984 7.52474 7.12435C7.77012 7.17597 8.0102 7.2472 8.25612 7.29519C8.31553 7.30954 8.3781 7.30229 8.43266 7.27475C8.48722 7.24721 8.53022 7.20117 8.55396 7.14485C8.5777 7.08853 8.58065 7.02561 8.56227 6.96732C8.54389 6.90903 8.50539 6.85917 8.45364 6.82665C7.94716 6.48759 7.37999 6.73945 6.88122 6.95889C6.51501 7.1056 6.18973 7.33875 5.93317 7.63844C5.69615 7.55498 5.44024 7.54085 5.19547 7.59772C5.20256 7.54175 5.19447 7.48491 5.17206 7.43314C5.14965 7.38138 5.11373 7.33658 5.06807 7.30345C7.08769 7.15065 8.60791 4.49359 7.05367 2.91562C6.86671 2.73777 6.65372 2.58949 6.42205 2.47589C6.29913 2.38915 6.15987 2.3283 6.01272 2.29704C5.86556 2.26577 5.71359 2.26474 5.56603 2.29401C5.52667 2.30612 5.49105 2.32806 5.46253 2.35776C5.434 2.38746 5.41352 2.42394 5.40301 2.46376C5.3925 2.50357 5.3923 2.54541 5.40245 2.58532C5.41259 2.62522 5.43274 2.66189 5.46099 2.69185C5.58747 2.82677 5.75056 2.92185 5.93027 2.96546C6.17646 3.04648 6.40015 3.18422 6.58333 3.36757C6.7665 3.55092 6.90403 3.77475 6.98481 4.02101C7.46452 5.9271 5.11288 7.29961 3.48883 6.5442C2.11834 5.87646 2.32883 3.76197 3.40609 2.90887C3.85809 2.50122 4.44171 2.75518 4.95413 2.8639C5.01355 2.87824 5.07612 2.87099 5.13069 2.84345C5.18525 2.8159 5.22824 2.76986 5.25198 2.71353C5.27573 2.65721 5.27867 2.59428 5.26029 2.53599C5.24191 2.4777 5.20341 2.42784 5.15166 2.39532C4.6452 2.05626 4.07803 2.30813 3.57926 2.52756C1.63725 3.22566 1.42468 6.53249 3.53337 7.15759C3.49957 7.29718 3.4875 7.44116 3.4976 7.58443C1.61457 8.13043 0.423815 10.2861 0.683996 12.1868C0.687697 12.2431 0.706039 12.2973 0.737202 12.3443C0.768365 12.3912 0.811264 12.4292 0.861643 12.4545C0.912022 12.4797 0.968127 12.4914 1.02439 12.4882C1.08066 12.4851 1.13512 12.4673 1.18239 12.4366C2.30494 13.1355 3.627 13.4437 4.94288 13.3134C4.56766 13.7706 4.28935 14.2994 4.12485 14.8675C3.96035 15.4356 3.9131 16.0313 3.98598 16.6182C3.98969 16.6744 4.00804 16.7287 4.0392 16.7757C4.07036 16.8226 4.11326 16.8606 4.16364 16.8858C4.21401 16.9111 4.27011 16.9227 4.32637 16.9196C4.38263 16.9164 4.43709 16.8986 4.48435 16.868C6.43427 18.1399 9.52833 18.0907 11.3258 16.5717C11.4914 16.3832 11.3361 15.998 11.055 16.1065C10.5466 16.3026 10.1098 16.6408 9.58653 16.8222C7.94405 17.4186 6.15684 17.1791 4.60188 16.4656C4.47083 15.78 4.54986 15.0709 4.82863 14.431C5.10739 13.7911 5.57289 13.2503 6.16417 12.8794C6.3739 13.651 6.87453 14.3113 7.56087 14.7216C7.57311 14.7521 7.59163 14.7798 7.61522 14.8027C7.63882 14.8257 7.66696 14.8434 7.69784 14.8548C7.72872 14.8662 7.76165 14.871 7.7945 14.8688C7.82734 14.8667 7.85938 14.8577 7.88853 14.8424C8.69061 14.3981 9.2844 13.6545 9.54037 12.774C10.0454 13.0133 10.4801 13.3789 10.8024 13.8355C11.1247 14.2921 11.3235 14.8241 11.3798 15.3802C11.3808 15.7943 11.4093 16.2079 11.4651 16.6182C11.4688 16.6744 11.4871 16.7287 11.5183 16.7757C11.5494 16.8226 11.5923 16.8606 11.6427 16.8858C11.6931 16.9111 11.7492 16.9227 11.8054 16.9196C11.8617 16.9164 11.9161 16.8986 11.9634 16.868C13.9133 18.1399 17.0074 18.0907 18.8049 16.5717C18.9704 16.3832 18.8151 15.998 18.5341 16.1065C18.0257 16.3026 17.5889 16.6408 17.0656 16.8222C15.4231 17.4186 13.6359 17.1791 12.0809 16.4655C11.9499 15.78 12.0289 15.0708 12.3077 14.431C12.5864 13.7911 13.0519 13.2503 13.6432 12.8794C13.8529 13.651 14.3536 14.3113 15.0399 14.7216C15.0522 14.7521 15.0707 14.7798 15.0943 14.8027C15.1179 14.8257 15.146 14.8434 15.1769 14.8548C15.2078 14.8662 15.2407 14.871 15.2735 14.8689C15.3064 14.8667 15.3384 14.8577 15.3676 14.8425C16.1696 14.3981 16.7634 13.6545 17.0194 12.774C17.6291 13.0711 18.1336 13.5471 18.4654 14.1386C18.7973 14.73 18.9408 15.4087 18.8766 16.0838C18.8789 16.1511 18.905 16.2155 18.9502 16.2654C18.9953 16.3154 19.0567 16.3477 19.1235 16.3567C19.1902 16.3658 19.258 16.3509 19.3148 16.3148C19.3717 16.2786 19.4139 16.2235 19.434 16.1593C19.8033 14.2008 18.0462 11.8474 15.9765 12.0291ZM12.2981 7.39282C12.2049 7.56395 12.3057 7.77349 12.2562 7.95421C12.2314 8.0376 12.1763 8.10871 12.1018 8.15356C12.0272 8.19841 11.9386 8.21378 11.8533 8.19664C11.437 8.11815 11.3614 7.61974 11.3761 7.26322C11.6998 7.33062 12.0316 7.35008 12.361 7.32097C12.337 7.34206 12.3158 7.36621 12.2981 7.39282ZM14.6781 11.6946C15.0018 11.762 15.3336 11.7814 15.6629 11.7523C15.4729 11.9066 15.6139 12.1828 15.5582 12.3856C15.5334 12.4689 15.4783 12.54 15.4038 12.5849C15.3292 12.6298 15.2406 12.6451 15.1553 12.628C14.739 12.5495 14.6634 12.0511 14.6781 11.6946ZM7.19906 11.6946C7.52274 11.762 7.85457 11.7814 8.1839 11.7523C7.9939 11.9066 8.13481 12.1828 8.07919 12.3856C8.05437 12.4689 7.99928 12.54 7.92472 12.5849C7.85017 12.6298 7.76154 12.6451 7.67624 12.628C7.25996 12.5495 7.18434 12.0511 7.19906 11.6946ZM3.89708 7.26322C4.22076 7.33062 4.55259 7.35008 4.88194 7.32097C4.69191 7.47524 4.83284 7.75146 4.77721 7.95421C4.75239 8.0376 4.6973 8.10871 4.62274 8.15356C4.54819 8.19841 4.45956 8.21378 4.37426 8.19664C3.95795 8.11815 3.88237 7.61974 3.89708 7.26322ZM3.62215 8.03123C3.9609 8.77229 4.94687 8.75415 5.13541 7.91608C5.29335 8.00236 5.46319 8.06482 5.6394 8.10142C5.47771 8.43254 5.37771 8.79035 5.3443 9.15733C5.10495 9.45182 4.82027 9.70636 4.50092 9.91139C3.89303 9.52104 3.40027 8.9756 3.07345 8.33132C3.25773 8.23354 3.44313 8.13833 3.62215 8.03123ZM5.73517 12.5476C4.23595 12.9521 2.6858 12.6555 1.2999 12.0342C1.16886 11.3486 1.2479 10.6395 1.52666 9.99959C1.80543 9.35971 2.27093 8.81892 2.86221 8.44804C3.07193 9.21966 3.57255 9.87996 4.25888 10.2902C4.27113 10.3208 4.28964 10.3484 4.31324 10.3714C4.33683 10.3943 4.36498 10.4121 4.39586 10.4235C4.42674 10.4349 4.45967 10.4396 4.49252 10.4375C4.52536 10.4354 4.55739 10.4264 4.58655 10.4111C4.87808 10.2681 5.14141 10.0736 5.36389 9.83711C5.41659 10.239 5.58311 10.6175 5.84382 10.9279C6.10454 11.2383 6.44857 11.4676 6.83535 11.5889C6.80155 11.7285 6.78949 11.8725 6.79959 12.0158C6.40775 12.1065 6.04298 12.2888 5.73517 12.5476ZM9.04827 12.7024C8.96145 13.0454 8.80643 13.3675 8.59247 13.6493C8.37851 13.9311 8.10998 14.1669 7.80291 14.3427C7.19503 13.9524 6.70226 13.407 6.37543 12.7627C6.55972 12.6649 6.74509 12.5697 6.92412 12.4626C7.26287 13.2036 8.24881 13.1855 8.43737 12.3474C8.63929 12.4465 8.85193 12.522 9.07109 12.5725C9.06397 12.6163 9.05753 12.6603 9.04827 12.7024ZM11.7689 14.4064C11.6218 14.0025 11.4084 13.6259 11.1375 13.292C11.5641 13.3455 11.9952 13.3522 12.4232 13.312C12.1502 13.641 11.9295 14.0102 11.7689 14.4064ZM13.2137 12.548C12.2799 12.7808 11.3045 12.7911 10.366 12.5781C9.82843 12.2334 9.14606 11.9035 8.49743 12.0291C8.50452 11.9731 8.49644 11.9163 8.47403 11.8645C8.45163 11.8128 8.41573 11.768 8.37008 11.7348C8.96256 11.6661 9.52084 11.4213 9.97289 11.0322C10.4249 10.6431 10.75 10.1275 10.9062 9.55181C11.143 9.83999 11.4237 10.0892 11.738 10.2902C11.7502 10.3208 11.7687 10.3484 11.7923 10.3714C11.8159 10.3943 11.844 10.4121 11.8749 10.4234C11.9058 10.4348 11.9387 10.4396 11.9716 10.4375C12.0044 10.4354 12.0364 10.4264 12.0656 10.4111C12.3561 10.2674 12.6194 10.0742 12.8435 9.84004C12.8966 10.2414 13.0633 10.6192 13.3238 10.929C13.5844 11.2389 13.9281 11.4678 14.3144 11.5889C14.2806 11.7285 14.2685 11.8725 14.2786 12.0158C13.8866 12.1066 13.5217 12.289 13.2137 12.548ZM16.5273 12.7024C16.4405 13.0454 16.2855 13.3675 16.0715 13.6493C15.8575 13.9311 15.589 14.1669 15.2819 14.3427C14.6741 13.9524 14.1813 13.407 13.8545 12.7627C14.0388 12.6649 14.2241 12.5697 14.4032 12.4626C14.7419 13.2036 15.7278 13.1855 15.9164 12.3474C16.1183 12.4465 16.331 12.522 16.5501 12.5725C16.543 12.6163 16.5365 12.6603 16.5273 12.7024Z" fill="currentColor"/></g><defs><clipPath id="clip0_993_3172"><rect width="20" height="20" fill="white" transform="translate(0.0703125)"/></clipPath></defs></svg>