<svg data-v-748ebe1f="" xmlns="http://www.w3.org/2000/svg" width="29" height="28" viewBox="0 0 29 28" fill="none"><path d="M22.496 10.3019C22.4209 10.2466 22.3305 10.2159 22.2372 10.2141C23.4036 9.44691 22.5908 8.04599 21.4012 7.96023C23.1934 7.81585 23.2729 5.775 21.5258 5.46254C22.3688 4.81929 23.1375 3.50335 22.2673 2.60058C21.2503 1.7099 19.7326 1.81591 18.4608 1.72405C17.6989 1.70962 16.936 1.71885 16.1741 1.73321C15.5671 1.69088 14.9603 1.81981 14.4229 2.10535C14.084 2.37437 13.8357 2.74071 13.7114 3.15509C13.587 3.56946 13.5925 4.01199 13.7272 4.42313C11.9581 3.59244 9.88618 3.86406 7.98287 3.82937C7.37577 3.78711 6.76899 3.91607 6.23156 4.20158C5.23794 4.855 5.20529 6.5716 6.03051 7.38836C4.16756 7.12968 3.05891 9.47892 5.29105 9.96711C4.17859 10.1598 3.50455 11.5493 4.62556 12.2393C5.4949 12.7088 6.59047 12.6007 7.54302 12.6767C7.3912 13.0394 6.82559 13.5778 7.27521 13.9146C7.84575 14.1604 8.24121 13.1209 8.30963 12.691C8.829 12.6942 9.34857 12.6908 9.86833 12.6808C9.76488 13.0336 9.77203 13.4095 9.88881 13.7581C10.3225 14.5411 10.6628 13.8997 10.6909 13.3833L10.6751 13.5013C10.7168 13.2868 10.6995 13.0677 10.7324 12.8519L10.7164 12.9707C10.7331 12.8672 10.739 12.7621 10.7339 12.6574C11.7183 12.5744 12.7311 12.729 13.6941 12.4723C13.5934 12.5691 13.5346 12.7015 13.5303 12.8412C13.5259 12.9808 13.5765 13.1166 13.671 13.2195C16.1879 15.5443 18.9237 19.6797 17.0816 23.1153C15.5423 25.8124 8.57867 25.0773 5.83361 24.8128C4.67129 24.6783 3.34963 24.3119 2.67255 23.2733C1.51099 21.3515 2.36397 17.9273 3.3954 16.0736C4.08714 14.896 5.04278 14.0305 5.90792 12.9997C5.93884 12.9667 5.957 12.9237 5.95915 12.8785C5.96129 12.8333 5.9473 12.7888 5.91965 12.753C5.89201 12.7172 5.85253 12.6924 5.80827 12.683C5.764 12.6736 5.71784 12.6803 5.67804 12.7018C4.51919 13.2188 3.59129 14.3516 2.9109 15.3965C2.14659 16.5056 1.58836 17.7434 1.26293 19.0505C0.0158581 25.1848 3.75103 26.2664 8.97683 26.2426C11.818 26.2566 15.9268 26.643 17.8693 24.166C20.4934 24.143 23.7099 24.4026 25.7423 22.4448C29.0256 18.7813 25.806 12.8296 22.496 10.3019ZM21.6996 8.45386C22.2081 8.60038 22.7856 9.19823 22.3032 9.70414C22.1226 9.84592 21.9153 9.94991 21.6937 10.0099C21.472 10.0699 21.2406 10.0848 21.0131 10.0535C18.6353 10.0753 16.2611 10.2171 13.8948 9.86858C14.0495 9.80665 14.1885 9.71095 14.3016 9.58847C14.4146 9.46599 14.4989 9.31981 14.5482 9.16061C14.5976 9.00141 14.6108 8.83319 14.5868 8.66824C14.5629 8.50329 14.5024 8.34576 14.4099 8.20716C16.4224 7.98177 18.4065 8.27864 20.4078 8.41307C20.8379 8.35932 21.2737 8.37309 21.6996 8.45386ZM15.1265 2.72876C16.0509 2.45193 17.1858 2.58766 18.1562 2.54761C19.0605 2.61575 22.1739 2.46469 21.8241 3.93375C21.6692 4.42153 21.1937 4.69155 20.8634 5.04505C20.8222 5.08885 20.7929 5.14251 20.7783 5.20089C20.7637 5.25927 20.7644 5.32042 20.7803 5.37846C20.146 5.34991 19.5233 5.25843 18.8984 5.17207C18.9984 4.97428 19.1284 4.79313 19.2837 4.63503L19.2169 4.72154C19.2975 4.6365 19.3679 4.54231 19.4266 4.44089C19.766 3.89148 19.2173 3.71097 18.7846 3.97941C18.6146 4.11257 18.4744 4.2799 18.3731 4.4706C18.2718 4.6613 18.2116 4.87113 18.1964 5.08654C18.0822 5.07389 17.9679 5.06216 17.8534 5.05231C17.8623 4.78964 17.8134 4.52822 17.71 4.28657C17.6066 4.04493 17.4514 3.82897 17.2553 3.65399C17.1756 3.60619 17.0833 3.5835 16.9905 3.58886C16.8977 3.59422 16.8087 3.62738 16.735 3.68404C16.6613 3.74069 16.6064 3.81822 16.5773 3.90652C16.5483 3.99483 16.5465 4.08982 16.5722 4.17915C16.7274 4.44113 16.8474 4.72236 16.9293 5.01562C16.2424 5.01566 15.5565 5.06835 14.8776 5.17325C14.9134 4.42111 14.0946 3.18039 15.1265 2.72876ZM14.4563 5.68204C16.4562 5.47133 18.4204 5.76202 20.4078 5.89065C20.8379 5.83692 21.2737 5.85069 21.6996 5.93145C22.2081 6.07801 22.7856 6.67582 22.3032 7.18176C22.1226 7.32353 21.9153 7.42753 21.6937 7.48754C21.472 7.54755 21.2406 7.56236 21.0131 7.53108C18.5552 7.52529 16.0677 7.71483 13.6372 7.29615C14.0976 6.87578 14.3889 6.30185 14.4563 5.68204ZM13.7723 7.68903C13.6313 7.63035 13.4846 7.58669 13.3345 7.55878C13.3898 7.51653 13.4446 7.47162 13.4988 7.42403C13.6015 7.49959 13.6935 7.58874 13.7723 7.68903ZM6.93513 4.82501C7.86463 4.5477 8.9911 4.68418 9.96487 4.64384C10.8692 4.71201 13.9827 4.56095 13.6327 6.03001C13.4779 6.51776 13.0024 6.78781 12.6721 7.1413C12.6309 7.1851 12.6016 7.23876 12.587 7.29713C12.5724 7.3555 12.5731 7.41664 12.589 7.47468C11.9547 7.44613 11.332 7.35467 10.7071 7.26832C10.8071 7.07053 10.9371 6.88938 11.0924 6.73127L11.0255 6.81778C11.1062 6.73276 11.1766 6.63856 11.2353 6.53714C11.5746 5.98767 11.026 5.80719 10.5933 6.07566C10.4233 6.20882 10.2831 6.37616 10.1818 6.56685C10.0805 6.75755 10.0203 6.96738 10.0051 7.18279C9.89095 7.17013 9.77664 7.15838 9.66209 7.14852C9.671 6.88586 9.62204 6.62444 9.51867 6.3828C9.41531 6.14116 9.26008 5.9252 9.06397 5.75023C8.98424 5.70243 8.89198 5.67973 8.79918 5.68508C8.70638 5.69044 8.61733 5.7236 8.54364 5.78026C8.46995 5.83692 8.41502 5.91445 8.38599 6.00276C8.35697 6.09107 8.3552 6.18607 8.38091 6.2754C8.5361 6.53741 8.65616 6.8187 8.73801 7.11202C8.05118 7.11124 7.36529 7.16276 6.68629 7.26612C6.71951 6.51368 5.90474 5.27595 6.93513 4.82501ZM4.74595 8.4451C5.05028 7.96671 5.66477 8.02784 6.05071 7.79088C8.12285 7.55869 10.1575 7.84754 12.2165 7.98688C12.6466 7.93318 13.0824 7.94695 13.5082 8.02771C14.0168 8.17423 14.5943 8.77208 14.1119 9.27799C13.9313 9.41977 13.724 9.52377 13.5024 9.58378C13.2807 9.6438 13.0493 9.65862 12.8218 9.62735C11.5343 9.62778 10.2527 9.7131 8.96875 9.63135C8.23124 9.58704 3.94163 9.84836 4.74595 8.4451ZM13.5843 9.98633C13.5402 10.0289 13.4931 10.0684 13.4435 10.1044C13.3666 10.0857 13.289 10.0689 13.2099 10.0565C13.3362 10.042 13.4613 10.0186 13.5843 9.98633ZM12.8218 12.1498C11.0912 12.1618 9.36847 12.2576 7.63847 12.1441C6.97891 12.0638 4.09105 12.1927 4.74591 10.9676C5.04968 10.4897 5.66516 10.55 6.05072 10.3133C8.12003 10.0706 10.1591 10.366 12.2165 10.5093C12.6466 10.4556 13.0824 10.4694 13.5082 10.5501C14.0168 10.6967 14.5943 11.2945 14.1119 11.8004C13.9313 11.9422 13.724 12.0462 13.5024 12.1062C13.2807 12.1662 13.0493 12.181 12.8218 12.1498ZM17.9253 16.9707C19.0526 17.3071 20.3762 17.8763 18.5783 18.6429C18.4062 18.0688 18.1878 17.5095 17.9253 16.9707ZM25.2728 21.019C23.9297 23.0893 20.7411 22.8833 18.5232 22.9937C18.9509 21.8762 19.0439 20.6584 18.7908 19.489C19.4708 19.1892 20.1328 18.6136 20.186 17.8921C20.2071 16.6451 18.3469 16.2018 17.3948 15.9777C17.2817 15.7837 17.1608 15.5916 17.0369 15.3991C17.3865 15.2075 17.7713 15.089 18.1681 15.0506C18.5648 15.0123 18.9652 15.055 19.345 15.1761C19.4059 15.2088 19.4771 15.2167 19.5436 15.198C19.6102 15.1792 19.6668 15.1354 19.7017 15.0758C19.7366 15.0161 19.747 14.9452 19.7306 14.8781C19.7143 14.8109 19.6725 14.7527 19.6141 14.7157C19.2608 14.3922 18.8167 14.1847 18.3419 14.1213C18.3528 13.8139 18.3359 13.5062 18.2912 13.202C18.2912 13.0959 18.2491 12.9942 18.1741 12.9192C18.0991 12.8442 17.9974 12.8021 17.8913 12.8021C17.7853 12.8021 17.6836 12.8442 17.6086 12.9192C17.5336 12.9942 17.4914 13.0959 17.4914 13.202C17.4453 13.5125 17.4289 13.8268 17.4425 14.1405C17.0859 14.21 16.7451 14.3445 16.4371 14.5372C15.8404 13.7189 15.1211 12.9974 14.3047 12.3981C14.2295 12.3429 14.1391 12.3122 14.0459 12.3104C14.2006 12.2213 14.3316 12.0964 14.428 11.9462C14.5244 11.7959 14.5833 11.6248 14.5998 11.447C14.6163 11.2693 14.5898 11.0902 14.5227 10.9248C14.4556 10.7594 14.3497 10.6125 14.2141 10.4965C14.7379 10.534 15.2197 10.564 15.7343 10.5804C15.5825 10.9432 15.0169 11.4816 15.4665 11.8183C16.037 12.0642 16.4325 11.0246 16.5009 10.5948C17.0203 10.5979 17.5399 10.5945 18.0596 10.5846C17.9562 10.9373 17.9633 11.3133 18.0801 11.6618C18.5138 12.4448 18.8541 11.8036 18.8822 11.2871L18.8664 11.405C18.9081 11.1906 18.8908 10.9714 18.9236 10.7557L18.9077 10.8745C18.9244 10.7709 18.9303 10.6659 18.9252 10.5611C19.9096 10.4782 20.9224 10.6327 21.8853 10.376C21.7846 10.4729 21.7259 10.6053 21.7215 10.7449C21.7172 10.8846 21.7678 11.0204 21.8623 11.1232C22.7676 11.9578 23.5753 12.8923 24.2699 13.9089C25.5196 15.9683 26.5968 18.7524 25.2728 21.019Z" fill="currentColor"/><path d="M9.77029 20.7455C9.18101 21.0614 8.50194 21.168 7.84418 21.0479C7.41793 20.9635 6.78293 20.5931 6.53329 21.1526C6.28228 21.9916 7.51513 22.0468 8.07845 22.0611C8.02502 22.2416 8.00984 22.4312 8.0339 22.6179C8.05795 22.8046 8.1207 22.9843 8.21813 23.1453C8.26195 23.1993 8.31697 23.2432 8.37939 23.2739C8.44182 23.3046 8.51016 23.3214 8.5797 23.3231C8.64924 23.3248 8.71833 23.3114 8.78218 23.2838C8.84603 23.2562 8.90314 23.2151 8.94955 23.1633C9.24828 22.8348 9.10787 22.3381 9.1831 21.9329C11.4732 21.4538 12.0634 18.9947 9.39434 18.6167C8.87996 18.5621 7.64293 18.7209 7.52225 17.9888C7.48853 17.6796 7.96734 17.5554 8.20582 17.4757C8.66323 17.3622 9.13463 17.3153 9.60543 17.3366C9.6796 17.355 9.75789 17.3466 9.8265 17.3129C9.8951 17.2793 9.94961 17.2225 9.98041 17.1525C10.1297 16.7659 9.62495 16.6539 9.36147 16.5431C9.42154 16.2247 9.39292 15.8959 9.27874 15.5926C9.24489 15.54 9.19706 15.4978 9.1406 15.4708C9.08415 15.4438 9.02129 15.433 8.95906 15.4397C8.89683 15.4463 8.83768 15.4702 8.78823 15.5085C8.73878 15.5469 8.70098 15.5983 8.67905 15.6569C8.60402 15.9167 8.57222 16.1871 8.58492 16.4573C7.73038 16.4978 6.58942 16.9377 6.58063 17.94C6.58907 18.8612 7.49523 19.4155 8.33648 19.4522C8.78024 19.4499 9.22359 19.4795 9.6631 19.5408C10.4673 19.7437 10.4837 20.3797 9.77029 20.7455Z" fill="currentColor"/></svg>